<svg width="1440" height="897" viewBox="0 0 1440 897" fill="none" xmlns="http://www.w3.org/2000/svg">
<ellipse cx="740.571" cy="342.605" rx="343.428" ry="342.605" fill="url(#paint0_radial)"/>
<ellipse cx="686.428" cy="389.97" rx="343.428" ry="342.605" fill="white"/>
<g filter="url(#filter0_d)">
<path d="M905.348 118.194C906.704 117.439 906.722 115.496 905.38 114.717L898.043 110.456C896.714 109.684 895.047 110.638 895.039 112.175L894.993 120.544C894.984 122.075 896.628 123.047 897.965 122.303L905.348 118.194Z" fill="white"/>
</g>
<g filter="url(#filter1_df)">
<path d="M106.752 571.465L45.8235 509.857L129.642 487.895L106.752 571.465Z" fill="#AAAFCE" fill-opacity="0.35"/>
</g>
<g filter="url(#filter2_df)">
<path d="M1238.07 105.023L1272.03 60.9838L1293.19 112.406L1238.07 105.023Z" fill="#AAAFCE" fill-opacity="0.35"/>
</g>
<g filter="url(#filter3_df)">
<path d="M1006.14 194.317L972.274 183.972L998.166 159.817L1006.14 194.317Z" fill="#AAAFCE" fill-opacity="0.35"/>
</g>
<g filter="url(#filter4_df)">
<path d="M210.933 843.583L232.479 795.278L263.539 838.09L210.933 843.583Z" fill="#AAAFCE" fill-opacity="0.35"/>
</g>
<g filter="url(#filter5_d)">
<circle cx="1111" cy="209" r="10" fill="white"/>
</g>
<line opacity="0.3" x1="914.917" y1="404.666" x2="963.966" y2="434.561" stroke="url(#paint1_linear)" stroke-opacity="0.3" stroke-width="3" stroke-linecap="round" stroke-linejoin="round"/>
<line opacity="0.3" x1="1130.44" y1="213.915" x2="1227.24" y2="240.39" stroke="url(#paint2_linear)" stroke-opacity="0.45" stroke-width="3" stroke-linecap="round" stroke-linejoin="round"/>
<line x1="1134.1" y1="242.586" x2="1209.9" y2="349.207" stroke="url(#paint3_linear)" stroke-opacity="0.57" stroke-width="3" stroke-linecap="round" stroke-linejoin="round"/>
<line x1="1007.9" y1="64.2745" x2="1118.5" y2="115.836" stroke="url(#paint4_linear)" stroke-opacity="0.57" stroke-width="3" stroke-linecap="round" stroke-linejoin="round"/>
<line x1="1126.29" y1="143.507" x2="1115.94" y2="184.904" stroke="url(#paint5_linear)" stroke-opacity="0.57" stroke-width="3" stroke-linecap="round" stroke-linejoin="round"/>
<line x1="1001.19" y1="194.282" x2="1058.5" y2="240.124" stroke="url(#paint6_linear)" stroke-opacity="0.57" stroke-width="3" stroke-linecap="round" stroke-linejoin="round"/>
<line opacity="0.3" x1="1100.45" y1="136.799" x2="1013.8" y2="168.986" stroke="url(#paint7_linear)" stroke-opacity="0.45" stroke-width="3" stroke-linecap="round" stroke-linejoin="round"/>
<line opacity="0.3" x1="951.057" y1="67.0984" x2="907.455" y2="99.3959" stroke="url(#paint8_linear)" stroke-opacity="0.45" stroke-width="3" stroke-linecap="round" stroke-linejoin="round"/>
<line opacity="0.3" x1="1102.71" y1="237.883" x2="1096.13" y2="320.101" stroke="url(#paint9_linear)" stroke-opacity="0.45" stroke-width="3" stroke-linecap="round" stroke-linejoin="round"/>
<line x1="988.861" y1="166.839" x2="973.965" y2="66.7045" stroke="url(#paint10_linear)" stroke-opacity="0.45" stroke-width="3" stroke-linecap="round" stroke-linejoin="round"/>
<line opacity="0.3" x1="1058.5" y1="385.786" x2="1005.45" y2="428.221" stroke="url(#paint11_linear)" stroke-opacity="0.3" stroke-width="3" stroke-linecap="round" stroke-linejoin="round"/>
<line opacity="0.3" x1="1030.11" y1="464.849" x2="1189.06" y2="435.57" stroke="url(#paint12_linear)" stroke-opacity="0.3" stroke-width="3" stroke-linecap="round" stroke-linejoin="round"/>
<line x1="1122.92" y1="373.573" x2="1199.44" y2="408.954" stroke="url(#paint13_linear)" stroke-opacity="0.57" stroke-width="3" stroke-linecap="round" stroke-linejoin="round"/>
<line x1="1007.88" y1="489.122" x2="1085.1" y2="563.317" stroke="url(#paint14_linear)" stroke-opacity="0.57" stroke-width="3" stroke-linecap="round" stroke-linejoin="round"/>
<line x1="1209.88" y1="443.129" x2="1121.32" y2="565.105" stroke="url(#paint15_linear)" stroke-opacity="0.57" stroke-width="3" stroke-linecap="round" stroke-linejoin="round"/>
<path opacity="0.3" d="M955.118 495.447L881.665 552.955" stroke="url(#paint16_linear)" stroke-opacity="0.57" stroke-width="3" stroke-linecap="round" stroke-linejoin="round"/>
<g filter="url(#filter6_d)">
<path d="M1106.84 588.211C1107.91 589.402 1109.87 588.922 1110.27 587.373L1115.14 568.345C1115.52 566.856 1114.15 565.511 1112.67 565.921L1095.11 570.781C1093.68 571.176 1093.16 572.937 1094.15 574.043L1106.84 588.211Z" fill="white"/>
</g>
<g filter="url(#filter7_d)">
<path d="M1119.72 131.399C1119 132.695 1119.89 134.295 1121.38 134.365L1140.94 135.292C1142.48 135.365 1143.52 133.744 1142.81 132.376L1133.12 113.621C1132.39 112.201 1130.37 112.172 1129.59 113.57L1119.72 131.399Z" fill="white"/>
</g>
<g filter="url(#filter8_d)">
<path d="M1245.93 230.237C1244.58 229.492 1242.92 230.503 1242.97 232.05L1244.16 271.784C1244.2 273.321 1245.89 274.233 1247.2 273.428L1280.79 252.788C1282.1 251.985 1282.05 250.07 1280.7 249.331L1245.93 230.237Z" fill="white"/>
</g>
<g filter="url(#filter9_d)">
<path d="M1232.44 375.689C1231.37 374.526 1229.44 375.008 1229.04 376.537L1220.88 407.659C1220.49 409.146 1221.85 410.499 1223.33 410.097L1252.82 402.112C1254.27 401.719 1254.78 399.93 1253.77 398.826L1232.44 375.689Z" fill="white"/>
</g>
<g filter="url(#filter10_d)">
<path d="M1083.24 343.314C1083.6 341.83 1085.43 341.285 1086.55 342.327L1111.52 365.631C1112.64 366.669 1112.23 368.522 1110.78 368.994L1077.42 379.884C1075.93 380.37 1074.48 379.03 1074.86 377.506L1083.24 343.314Z" fill="white"/>
</g>
<path d="M974.731 451.796L978.244 462.177L982.077 446.256L974.731 451.796Z" fill="#2F3973"/>
<path d="M966.057 446.256L974.732 451.874L982.077 446.256H966.057Z" fill="#131646"/>
<path d="M975.02 461.624L978.233 462.2L974.732 451.796L966.057 446.256L975.02 461.624Z" fill="#405096"/>
<path d="M989.245 446.256L999.117 455.353L985.09 463.496L989.245 446.256Z" fill="#405096"/>
<path d="M1003.23 446.256L999.117 455.353L989.246 446.256H1003.23Z" fill="#2F3973"/>
<path d="M985.09 463.441L1005.24 466.886L999.117 455.308L985.09 463.441Z" fill="#131646"/>
<path d="M990.276 476.592L992.071 490.995L978.975 468.415L990.276 476.592Z" fill="#2F3973"/>
<path d="M1002.12 472.548L990.254 476.592L978.975 468.415L1002.12 472.548Z" fill="#131646"/>
<path d="M992.071 490.95L990.287 476.547L1002.14 472.503L992.071 490.95Z" fill="#1F2658"/>
<path d="M960.572 449.026L956.14 475.539L972.15 468.737L960.572 449.026Z" fill="#2F3973"/>
<path d="M967.707 495.371L972.15 468.736L956.14 475.539L967.707 495.371Z" fill="#405096"/>
<path d="M986.83 493.731L967.707 495.371L972.15 468.736L986.83 493.731Z" fill="#2F3973"/>
<path d="M956.14 475.539L960.572 449.026L959.586 447.342C959.381 447.003 959.092 446.722 958.746 446.528C958.4 446.334 958.01 446.233 957.614 446.234H948.196C947.272 446.233 946.363 446.476 945.563 446.938C944.762 447.401 944.097 448.067 943.637 448.868C943.176 449.67 942.934 450.579 942.938 451.503C942.941 452.428 943.188 453.335 943.654 454.134L956.14 475.561V475.539Z" fill="#1F2658"/>
<path d="M986.83 493.732L967.707 495.371L974.078 506.296C974.542 507.093 975.207 507.756 976.007 508.216C976.807 508.676 977.714 508.918 978.637 508.918C979.56 508.918 980.467 508.676 981.267 508.216C982.067 507.756 982.732 507.093 983.196 506.296L987.993 498.03C988.2 497.679 988.309 497.28 988.309 496.873C988.309 496.465 988.2 496.066 987.993 495.715L986.83 493.732Z" fill="#131646"/>
<path d="M1007.25 446.256H1003.23L999.117 455.353L1011.86 448.705C1011.35 447.95 1010.66 447.331 1009.86 446.904C1009.06 446.477 1008.16 446.255 1007.25 446.256Z" fill="#405096"/>
<path d="M1010.21 457.901L1012.09 454.455C1012.58 453.564 1012.81 452.557 1012.76 451.543C1012.72 450.529 1012.39 449.547 1011.83 448.705L1009.84 449.735L999.084 455.275L1005.21 466.853L1010.21 457.901Z" fill="#2F3973"/>
<defs>
<filter id="filter0_d" x="876.526" y="93.7393" width="46.8684" height="46.8144" filterUnits="userSpaceOnUse" color-interpolation-filters="sRGB">
<feFlood flood-opacity="0" result="BackgroundImageFix"/>
<feColorMatrix in="SourceAlpha" type="matrix" values="0 0 0 0 0 0 0 0 0 0 0 0 0 0 0 0 0 0 127 0"/>
<feOffset/>
<feGaussianBlur stdDeviation="8"/>
<feColorMatrix type="matrix" values="0 0 0 0 0.262745 0 0 0 0 0.403922 0 0 0 0 0.619608 0 0 0 0.3 0"/>
<feBlend mode="normal" in2="BackgroundImageFix" result="effect1_dropShadow"/>
<feBlend mode="normal" in="SourceGraphic" in2="effect1_dropShadow" result="shape"/>
</filter>
<filter id="filter1_df" x="13.8232" y="455.895" width="166.838" height="158.551" filterUnits="userSpaceOnUse" color-interpolation-filters="sRGB">
<feFlood flood-opacity="0" result="BackgroundImageFix"/>
<feColorMatrix in="SourceAlpha" type="matrix" values="0 0 0 0 0 0 0 0 0 0 0 0 0 0 0 0 0 0 127 0"/>
<feOffset/>
<feGaussianBlur stdDeviation="16"/>
<feColorMatrix type="matrix" values="0 0 0 0 0.870833 0 0 0 0 0.9845 0 0 0 0 1 0 0 0 1 0"/>
<feBlend mode="normal" in2="BackgroundImageFix" result="effect1_dropShadow"/>
<feBlend mode="normal" in="SourceGraphic" in2="effect1_dropShadow" result="shape"/>
<feGaussianBlur stdDeviation="8" result="effect2_foregroundBlur"/>
</filter>
<filter id="filter2_df" x="1195.49" y="28.9839" width="129.696" height="133.75" filterUnits="userSpaceOnUse" color-interpolation-filters="sRGB">
<feFlood flood-opacity="0" result="BackgroundImageFix"/>
<feColorMatrix in="SourceAlpha" type="matrix" values="0 0 0 0 0 0 0 0 0 0 0 0 0 0 0 0 0 0 127 0"/>
<feOffset/>
<feGaussianBlur stdDeviation="16"/>
<feColorMatrix type="matrix" values="0 0 0 0 0.870833 0 0 0 0 0.9845 0 0 0 0 1 0 0 0 1 0"/>
<feBlend mode="normal" in2="BackgroundImageFix" result="effect1_dropShadow"/>
<feBlend mode="normal" in="SourceGraphic" in2="effect1_dropShadow" result="shape"/>
<feGaussianBlur stdDeviation="6.5" result="effect2_foregroundBlur"/>
</filter>
<filter id="filter3_df" x="940.274" y="127.817" width="110.81" height="110.577" filterUnits="userSpaceOnUse" color-interpolation-filters="sRGB">
<feFlood flood-opacity="0" result="BackgroundImageFix"/>
<feColorMatrix in="SourceAlpha" type="matrix" values="0 0 0 0 0 0 0 0 0 0 0 0 0 0 0 0 0 0 127 0"/>
<feOffset/>
<feGaussianBlur stdDeviation="16"/>
<feColorMatrix type="matrix" values="0 0 0 0 0.870833 0 0 0 0 0.9845 0 0 0 0 1 0 0 0 1 0"/>
<feBlend mode="normal" in2="BackgroundImageFix" result="effect1_dropShadow"/>
<feBlend mode="normal" in="SourceGraphic" in2="effect1_dropShadow" result="shape"/>
<feGaussianBlur stdDeviation="6.5" result="effect2_foregroundBlur"/>
</filter>
<filter id="filter4_df" x="163.402" y="763.278" width="132.136" height="133.711" filterUnits="userSpaceOnUse" color-interpolation-filters="sRGB">
<feFlood flood-opacity="0" result="BackgroundImageFix"/>
<feColorMatrix in="SourceAlpha" type="matrix" values="0 0 0 0 0 0 0 0 0 0 0 0 0 0 0 0 0 0 127 0"/>
<feOffset/>
<feGaussianBlur stdDeviation="16"/>
<feColorMatrix type="matrix" values="0 0 0 0 0.870833 0 0 0 0 0.9845 0 0 0 0 1 0 0 0 1 0"/>
<feBlend mode="normal" in2="BackgroundImageFix" result="effect1_dropShadow"/>
<feBlend mode="normal" in="SourceGraphic" in2="effect1_dropShadow" result="shape"/>
<feGaussianBlur stdDeviation="8" result="effect2_foregroundBlur"/>
</filter>
<filter id="filter5_d" x="1085" y="183" width="52" height="52" filterUnits="userSpaceOnUse" color-interpolation-filters="sRGB">
<feFlood flood-opacity="0" result="BackgroundImageFix"/>
<feColorMatrix in="SourceAlpha" type="matrix" values="0 0 0 0 0 0 0 0 0 0 0 0 0 0 0 0 0 0 127 0"/>
<feOffset/>
<feGaussianBlur stdDeviation="8"/>
<feColorMatrix type="matrix" values="0 0 0 0 0.262745 0 0 0 0 0.403922 0 0 0 0 0.619608 0 0 0 0.3 0"/>
<feBlend mode="normal" in2="BackgroundImageFix" result="effect1_dropShadow"/>
<feBlend mode="normal" in="SourceGraphic" in2="effect1_dropShadow" result="shape"/>
</filter>
<filter id="filter6_d" x="1077.64" y="549.846" width="53.5678" height="55.0317" filterUnits="userSpaceOnUse" color-interpolation-filters="sRGB">
<feFlood flood-opacity="0" result="BackgroundImageFix"/>
<feColorMatrix in="SourceAlpha" type="matrix" values="0 0 0 0 0 0 0 0 0 0 0 0 0 0 0 0 0 0 127 0"/>
<feOffset/>
<feGaussianBlur stdDeviation="8"/>
<feColorMatrix type="matrix" values="0 0 0 0 0.262745 0 0 0 0 0.403922 0 0 0 0 0.619608 0 0 0 0.3 0"/>
<feBlend mode="normal" in2="BackgroundImageFix" result="effect1_dropShadow"/>
<feBlend mode="normal" in="SourceGraphic" in2="effect1_dropShadow" result="shape"/>
</filter>
<filter id="filter7_d" x="1099.39" y="94.9307" width="60.0786" height="61.4006" filterUnits="userSpaceOnUse" color-interpolation-filters="sRGB">
<feFlood flood-opacity="0" result="BackgroundImageFix"/>
<feColorMatrix in="SourceAlpha" type="matrix" values="0 0 0 0 0 0 0 0 0 0 0 0 0 0 0 0 0 0 127 0"/>
<feOffset/>
<feGaussianBlur stdDeviation="8"/>
<feColorMatrix type="matrix" values="0 0 0 0 0.262745 0 0 0 0 0.403922 0 0 0 0 0.619608 0 0 0 0.3 0"/>
<feBlend mode="normal" in2="BackgroundImageFix" result="effect1_dropShadow"/>
<feBlend mode="normal" in="SourceGraphic" in2="effect1_dropShadow" result="shape"/>
</filter>
<filter id="filter8_d" x="1216.37" y="205.357" width="84.7731" height="84.8702" filterUnits="userSpaceOnUse" color-interpolation-filters="sRGB">
<feFlood flood-opacity="0" result="BackgroundImageFix"/>
<feColorMatrix in="SourceAlpha" type="matrix" values="0 0 0 0 0 0 0 0 0 0 0 0 0 0 0 0 0 0 127 0"/>
<feOffset/>
<feGaussianBlur stdDeviation="8"/>
<feColorMatrix type="matrix" values="0 0 0 0 0.262745 0 0 0 0 0.403922 0 0 0 0 0.619608 0 0 0 0.3 0"/>
<feBlend mode="normal" in2="BackgroundImageFix" result="effect1_dropShadow"/>
<feBlend mode="normal" in="SourceGraphic" in2="effect1_dropShadow" result="shape"/>
</filter>
<filter id="filter9_d" x="1204.81" y="359.043" width="65.488" height="67.126" filterUnits="userSpaceOnUse" color-interpolation-filters="sRGB">
<feFlood flood-opacity="0" result="BackgroundImageFix"/>
<feColorMatrix in="SourceAlpha" type="matrix" values="0 0 0 0 0 0 0 0 0 0 0 0 0 0 0 0 0 0 127 0"/>
<feOffset/>
<feGaussianBlur stdDeviation="8"/>
<feColorMatrix type="matrix" values="0 0 0 0 0.262745 0 0 0 0 0.403922 0 0 0 0 0.619608 0 0 0 0.3 0"/>
<feBlend mode="normal" in2="BackgroundImageFix" result="effect1_dropShadow"/>
<feBlend mode="normal" in="SourceGraphic" in2="effect1_dropShadow" result="shape"/>
</filter>
<filter id="filter10_d" x="1058.8" y="325.788" width="69.3616" height="70.1968" filterUnits="userSpaceOnUse" color-interpolation-filters="sRGB">
<feFlood flood-opacity="0" result="BackgroundImageFix"/>
<feColorMatrix in="SourceAlpha" type="matrix" values="0 0 0 0 0 0 0 0 0 0 0 0 0 0 0 0 0 0 127 0"/>
<feOffset/>
<feGaussianBlur stdDeviation="8"/>
<feColorMatrix type="matrix" values="0 0 0 0 0.262745 0 0 0 0 0.403922 0 0 0 0 0.619608 0 0 0 0.3 0"/>
<feBlend mode="normal" in2="BackgroundImageFix" result="effect1_dropShadow"/>
<feBlend mode="normal" in="SourceGraphic" in2="effect1_dropShadow" result="shape"/>
</filter>
<radialGradient id="paint0_radial" cx="0" cy="0" r="1" gradientUnits="userSpaceOnUse" gradientTransform="translate(740.571 342.605) rotate(90) scale(342.605 343.428)">
<stop offset="0.510417" stop-color="#43679E"/>
<stop offset="1" stop-color="white" stop-opacity="0"/>
</radialGradient>
<linearGradient id="paint1_linear" x1="912.855" y1="405.167" x2="964.466" y2="436.622" gradientUnits="userSpaceOnUse">
<stop stop-color="#0094FF"/>
<stop offset="1" stop-color="#1B41A3"/>
</linearGradient>
<linearGradient id="paint2_linear" x1="1128.6" y1="214.966" x2="1228.3" y2="242.233" gradientUnits="userSpaceOnUse">
<stop stop-color="#0094FF"/>
<stop offset="1" stop-color="#1B41A3"/>
</linearGradient>
<linearGradient id="paint3_linear" x1="1132.01" y1="242.233" x2="1209.55" y2="351.299" gradientUnits="userSpaceOnUse">
<stop stop-color="#0094FF"/>
<stop offset="1" stop-color="#1B41A3"/>
</linearGradient>
<linearGradient id="paint4_linear" x1="1005.9" y1="65.0002" x2="1119.23" y2="117.829" gradientUnits="userSpaceOnUse">
<stop stop-color="#0094FF"/>
<stop offset="1" stop-color="#1B41A3" stop-opacity="0.36"/>
</linearGradient>
<linearGradient id="paint5_linear" x1="1125.19" y1="141.688" x2="1114.12" y2="185.996" gradientUnits="userSpaceOnUse">
<stop stop-color="#0094FF"/>
<stop offset="1" stop-color="#1B41A3" stop-opacity="0.36"/>
</linearGradient>
<linearGradient id="paint6_linear" x1="999.086" y1="194.516" x2="1058.73" y2="242.233" gradientUnits="userSpaceOnUse">
<stop stop-color="#0094FF"/>
<stop offset="1" stop-color="#1B41A3" stop-opacity="0"/>
</linearGradient>
<linearGradient id="paint7_linear" x1="1101.34" y1="134.871" x2="1011.87" y2="168.102" gradientUnits="userSpaceOnUse">
<stop stop-color="#0094FF"/>
<stop offset="1" stop-color="#1B41A3"/>
</linearGradient>
<linearGradient id="paint8_linear" x1="951.369" y1="65.0002" x2="905.357" y2="99.0835" gradientUnits="userSpaceOnUse">
<stop stop-color="#0094FF"/>
<stop offset="1" stop-color="#1B41A3"/>
</linearGradient>
<linearGradient id="paint9_linear" x1="1101.34" y1="236.268" x2="1094.52" y2="321.476" gradientUnits="userSpaceOnUse">
<stop stop-color="#0094FF"/>
<stop offset="1" stop-color="#1B41A3"/>
</linearGradient>
<linearGradient id="paint10_linear" x1="990.565" y1="168.102" x2="975.227" y2="65.0001" gradientUnits="userSpaceOnUse">
<stop stop-color="#0094FF" stop-opacity="0"/>
<stop offset="1" stop-color="#1B41A3"/>
</linearGradient>
<linearGradient id="paint11_linear" x1="1058.73" y1="383.678" x2="1003.35" y2="427.986" gradientUnits="userSpaceOnUse">
<stop stop-color="#0094FF"/>
<stop offset="1" stop-color="#1B41A3"/>
</linearGradient>
<linearGradient id="paint12_linear" x1="1028.91" y1="466.596" x2="1190.8" y2="436.773" gradientUnits="userSpaceOnUse">
<stop stop-color="#0094FF"/>
<stop offset="1" stop-color="#1B41A3"/>
</linearGradient>
<linearGradient id="paint13_linear" x1="1120.93" y1="374.305" x2="1200.18" y2="410.945" gradientUnits="userSpaceOnUse">
<stop stop-color="#1B41A3"/>
<stop offset="1" stop-color="#0094FF" stop-opacity="0"/>
</linearGradient>
<linearGradient id="paint14_linear" x1="1005.76" y1="489.164" x2="1085.15" y2="565.437" gradientUnits="userSpaceOnUse">
<stop stop-color="#1B41A3"/>
<stop offset="1" stop-color="#0094FF" stop-opacity="0"/>
</linearGradient>
<linearGradient id="paint15_linear" x1="1209.55" y1="441.034" x2="1119.23" y2="565.438" gradientUnits="userSpaceOnUse">
<stop stop-color="#0094FF"/>
<stop offset="1" stop-color="#1B41A3" stop-opacity="0"/>
</linearGradient>
<linearGradient id="paint16_linear" x1="970.3" y1="505.393" x2="880.252" y2="552.512" gradientUnits="userSpaceOnUse">
<stop stop-color="#0094FF"/>
<stop offset="1" stop-color="#1B41A3" stop-opacity="0"/>
</linearGradient>
</defs>
</svg>
