<svg width="1440" height="460" viewBox="0 0 1440 460" fill="none" xmlns="http://www.w3.org/2000/svg">
<ellipse cx="1062.36" cy="242.628" rx="206.796" ry="207.316" transform="rotate(2.59058 1062.36 242.628)" fill="url(#paint0_radial)"/>
<ellipse cx="1023.29" cy="241.1" rx="170.108" ry="170.643" transform="rotate(2.59058 1023.29 241.1)" fill="white"/>
<g filter="url(#filter0_d)">
<path d="M1039.2 70.9954C1040.03 69.6932 1041.96 69.7805 1042.66 71.1521L1049.56 84.5239C1050.27 85.8905 1049.23 87.5083 1047.69 87.4388L1032.72 86.7612C1031.18 86.6917 1030.3 84.9869 1031.12 83.6896L1039.2 70.9954Z" fill="white"/>
</g>
<g filter="url(#filter1_d)">
<path d="M1265.93 160.937C1264.93 159.761 1265.59 157.944 1267.1 157.673L1281.92 155.026C1283.43 154.755 1284.67 156.223 1284.15 157.67L1279.09 171.779C1278.57 173.227 1276.68 173.571 1275.68 172.399L1265.93 160.937Z" fill="white"/>
</g>
<g filter="url(#filter2_d)">
<path d="M1143.76 38.7317C1142.26 39.0772 1140.94 37.6609 1141.4 36.1874L1145.88 21.8226C1146.34 20.3545 1148.21 19.9303 1149.26 21.0584L1159.44 32.0552C1160.49 33.1832 1159.92 35.0195 1158.42 35.3637L1143.76 38.7317Z" fill="white"/>
</g>
<g filter="url(#filter3_d)">
<path d="M1213.09 274.114C1213.84 275.466 1212.84 277.116 1211.29 277.079L1196.25 276.718C1194.71 276.681 1193.79 274.995 1194.59 273.681L1202.37 260.866C1203.17 259.551 1205.09 259.591 1205.83 260.938L1213.09 274.114Z" fill="white"/>
</g>
<g filter="url(#filter4_d)">
<path d="M1038.74 285.606C1039.48 286.957 1038.48 288.608 1036.94 288.571L1021.9 288.209C1020.36 288.172 1019.44 286.487 1020.24 285.172L1028.01 272.357C1028.81 271.042 1030.73 271.082 1031.48 272.429L1038.74 285.606Z" fill="white"/>
</g>
<line x1="1.5" y1="-1.5" x2="91.6948" y2="-1.5" transform="matrix(0.537482 0.843275 -0.840778 0.541379 1047.03 96.1917)" stroke="url(#paint1_linear)" stroke-opacity="0.15" stroke-width="3" stroke-linecap="round" stroke-linejoin="round"/>
<line x1="1.5" y1="-1.5" x2="82.2159" y2="-1.5" transform="matrix(0.902095 0.431538 -0.428362 0.903607 940.336 242.798)" stroke="url(#paint2_linear)" stroke-opacity="0.15" stroke-width="3" stroke-linecap="round" stroke-linejoin="round"/>
<line x1="945.84" y1="118.052" x2="1021.05" y2="88.1601" stroke="url(#paint3_linear)" stroke-opacity="0.15" stroke-width="3" stroke-linecap="round" stroke-linejoin="round"/>
<line x1="1.5" y1="-1.5" x2="77.7874" y2="-1.5" transform="matrix(0.901453 -0.432877 0.429193 0.903213 1057.75 72.4473)" stroke="url(#paint4_linear)" stroke-opacity="0.15" stroke-width="3" stroke-linecap="round" stroke-linejoin="round"/>
<line x1="1.5" y1="-1.5" x2="120.262" y2="-1.5" transform="matrix(0.997931 -0.0642927 0.0632325 0.997999 1132.01 176.359)" stroke="url(#paint5_linear)" stroke-opacity="0.15" stroke-width="3" stroke-linecap="round" stroke-linejoin="round"/>
<line x1="1.5" y1="-1.5" x2="168.624" y2="-1.5" transform="matrix(0.077112 -0.997022 0.996998 0.0774265 1024.93 264.798)" stroke="url(#paint6_linear)" stroke-opacity="0.75" stroke-width="3" stroke-linecap="round" stroke-linejoin="round"/>
<line x1="1.5" y1="-1.5" x2="204.891" y2="-1.5" transform="matrix(0.942851 0.333214 -0.33065 0.943753 1059.61 84.646)" stroke="url(#paint7_linear)" stroke-opacity="0.57" stroke-width="3" stroke-linecap="round" stroke-linejoin="round"/>
<line x1="1.5" y1="-1.5" x2="138.72" y2="-1.5" transform="matrix(0.716412 0.697677 -0.694177 0.719805 1163.21 46.3264)" stroke="url(#paint8_linear)" stroke-opacity="0.15" stroke-width="3" stroke-linecap="round" stroke-linejoin="round"/>
<line x1="1.5" y1="-1.5" x2="121.227" y2="-1.5" transform="matrix(0.996103 -0.0881933 0.0869084 0.996216 1050.53 285.339)" stroke="url(#paint9_linear)" stroke-opacity="0.15" stroke-width="3" stroke-linecap="round" stroke-linejoin="round"/>
<line x1="1.5" y1="-1.5" x2="81.3154" y2="-1.5" transform="matrix(-0.448042 0.894012 -0.892364 -0.451316 1270.99 182.042)" stroke="url(#paint10_linear)" stroke-opacity="0.57" stroke-width="3" stroke-linecap="round" stroke-linejoin="round"/>
<line x1="1.5" y1="-1.5" x2="72.7972" y2="-1.5" transform="matrix(0.655426 0.755259 -0.752035 0.659124 1125.04 197.244)" stroke="url(#paint11_linear)" stroke-opacity="0.57" stroke-width="3" stroke-linecap="round" stroke-linejoin="round"/>
<defs>
<filter id="filter0_d" x="1014.81" y="54.0691" width="50.9814" height="49.372" filterUnits="userSpaceOnUse" color-interpolation-filters="sRGB">
<feFlood flood-opacity="0" result="BackgroundImageFix"/>
<feColorMatrix in="SourceAlpha" type="matrix" values="0 0 0 0 0 0 0 0 0 0 0 0 0 0 0 0 0 0 127 0"/>
<feOffset/>
<feGaussianBlur stdDeviation="8"/>
<feColorMatrix type="matrix" values="0 0 0 0 0.262745 0 0 0 0 0.403922 0 0 0 0 0.619608 0 0 0 0.3 0"/>
<feBlend mode="normal" in2="BackgroundImageFix" result="effect1_dropShadow"/>
<feBlend mode="normal" in="SourceGraphic" in2="effect1_dropShadow" result="shape"/>
</filter>
<filter id="filter1_d" x="1249.45" y="138.993" width="50.8162" height="50.1113" filterUnits="userSpaceOnUse" color-interpolation-filters="sRGB">
<feFlood flood-opacity="0" result="BackgroundImageFix"/>
<feColorMatrix in="SourceAlpha" type="matrix" values="0 0 0 0 0 0 0 0 0 0 0 0 0 0 0 0 0 0 127 0"/>
<feOffset/>
<feGaussianBlur stdDeviation="8"/>
<feColorMatrix type="matrix" values="0 0 0 0 0.262745 0 0 0 0 0.403922 0 0 0 0 0.619608 0 0 0 0.3 0"/>
<feBlend mode="normal" in2="BackgroundImageFix" result="effect1_dropShadow"/>
<feBlend mode="normal" in="SourceGraphic" in2="effect1_dropShadow" result="shape"/>
</filter>
<filter id="filter2_d" x="1125.31" y="4.41675" width="50.6684" height="50.3676" filterUnits="userSpaceOnUse" color-interpolation-filters="sRGB">
<feFlood flood-opacity="0" result="BackgroundImageFix"/>
<feColorMatrix in="SourceAlpha" type="matrix" values="0 0 0 0 0 0 0 0 0 0 0 0 0 0 0 0 0 0 127 0"/>
<feOffset/>
<feGaussianBlur stdDeviation="8"/>
<feColorMatrix type="matrix" values="0 0 0 0 0.262745 0 0 0 0 0.403922 0 0 0 0 0.619608 0 0 0 0.3 0"/>
<feBlend mode="normal" in2="BackgroundImageFix" result="effect1_dropShadow"/>
<feBlend mode="normal" in="SourceGraphic" in2="effect1_dropShadow" result="shape"/>
</filter>
<filter id="filter3_d" x="1178.3" y="243.903" width="51.0479" height="49.1767" filterUnits="userSpaceOnUse" color-interpolation-filters="sRGB">
<feFlood flood-opacity="0" result="BackgroundImageFix"/>
<feColorMatrix in="SourceAlpha" type="matrix" values="0 0 0 0 0 0 0 0 0 0 0 0 0 0 0 0 0 0 127 0"/>
<feOffset/>
<feGaussianBlur stdDeviation="8"/>
<feColorMatrix type="matrix" values="0 0 0 0 0.262745 0 0 0 0 0.403922 0 0 0 0 0.619608 0 0 0 0.3 0"/>
<feBlend mode="normal" in2="BackgroundImageFix" result="effect1_dropShadow"/>
<feBlend mode="normal" in="SourceGraphic" in2="effect1_dropShadow" result="shape"/>
</filter>
<filter id="filter4_d" x="1003.94" y="255.395" width="51.0479" height="49.1767" filterUnits="userSpaceOnUse" color-interpolation-filters="sRGB">
<feFlood flood-opacity="0" result="BackgroundImageFix"/>
<feColorMatrix in="SourceAlpha" type="matrix" values="0 0 0 0 0 0 0 0 0 0 0 0 0 0 0 0 0 0 127 0"/>
<feOffset/>
<feGaussianBlur stdDeviation="8"/>
<feColorMatrix type="matrix" values="0 0 0 0 0.262745 0 0 0 0 0.403922 0 0 0 0 0.619608 0 0 0 0.3 0"/>
<feBlend mode="normal" in2="BackgroundImageFix" result="effect1_dropShadow"/>
<feBlend mode="normal" in="SourceGraphic" in2="effect1_dropShadow" result="shape"/>
</filter>
<radialGradient id="paint0_radial" cx="0" cy="0" r="1" gradientUnits="userSpaceOnUse" gradientTransform="translate(1062.36 242.628) rotate(90) scale(207.316 206.796)">
<stop stop-color="#43679E"/>
<stop offset="1" stop-color="white" stop-opacity="0"/>
</radialGradient>
<linearGradient id="paint1_linear" x1="0" y1="0" x2="93.1948" y2="1.10374e-07" gradientUnits="userSpaceOnUse">
<stop stop-color="#0094FF"/>
<stop offset="1" stop-color="#2400FF"/>
</linearGradient>
<linearGradient id="paint2_linear" x1="0" y1="0" x2="83.7159" y2="8.90634e-08" gradientUnits="userSpaceOnUse">
<stop stop-color="#0094FF"/>
<stop offset="1" stop-color="#2400FF"/>
</linearGradient>
<linearGradient id="paint3_linear" x1="945" y1="120" x2="1023" y2="89" gradientUnits="userSpaceOnUse">
<stop stop-color="#0094FF"/>
<stop offset="1" stop-color="#2400FF"/>
</linearGradient>
<linearGradient id="paint4_linear" x1="0" y1="0" x2="79.2874" y2="7.989e-08" gradientUnits="userSpaceOnUse">
<stop stop-color="#0094FF"/>
<stop offset="1" stop-color="#2400FF"/>
</linearGradient>
<linearGradient id="paint5_linear" x1="0" y1="0" x2="121.762" y2="1.88412e-07" gradientUnits="userSpaceOnUse">
<stop stop-color="#0094FF"/>
<stop offset="1" stop-color="#2400FF"/>
</linearGradient>
<linearGradient id="paint6_linear" x1="0" y1="0" x2="170.124" y2="3.67802e-07" gradientUnits="userSpaceOnUse">
<stop stop-color="#0094FF"/>
<stop offset="1" stop-color="#1B41A3"/>
</linearGradient>
<linearGradient id="paint7_linear" x1="0" y1="0" x2="206.391" y2="5.41334e-07" gradientUnits="userSpaceOnUse">
<stop stop-color="#0094FF"/>
<stop offset="1" stop-color="#1B41A3"/>
</linearGradient>
<linearGradient id="paint8_linear" x1="0" y1="0" x2="140.22" y2="2.49864e-07" gradientUnits="userSpaceOnUse">
<stop stop-color="#0094FF"/>
<stop offset="1" stop-color="#2400FF"/>
</linearGradient>
<linearGradient id="paint9_linear" x1="0" y1="0" x2="122.727" y2="1.91409e-07" gradientUnits="userSpaceOnUse">
<stop stop-color="#0094FF"/>
<stop offset="1" stop-color="#2400FF"/>
</linearGradient>
<linearGradient id="paint10_linear" x1="0" y1="0" x2="82.8154" y2="8.71579e-08" gradientUnits="userSpaceOnUse">
<stop stop-color="#0094FF"/>
<stop offset="1" stop-color="#1B41A3"/>
</linearGradient>
<linearGradient id="paint11_linear" x1="0" y1="0" x2="74.2972" y2="7.01502e-08" gradientUnits="userSpaceOnUse">
<stop stop-color="#0094FF"/>
<stop offset="1" stop-color="#1B41A3"/>
</linearGradient>
</defs>
</svg>
