<svg width="955" height="733" viewBox="0 0 955 733" fill="none" xmlns="http://www.w3.org/2000/svg">
<ellipse cx="397.571" cy="342.605" rx="343.428" ry="342.605" fill="url(#paint0_radial)"/>
<ellipse cx="343.428" cy="389.97" rx="343.428" ry="342.605" fill="white"/>
<g filter="url(#filter0_d)">
<path d="M562.348 118.194C563.704 117.439 563.722 115.496 562.38 114.717L555.043 110.456C553.714 109.684 552.047 110.638 552.039 112.175L551.993 120.544C551.984 122.075 553.628 123.047 554.965 122.303L562.348 118.194Z" fill="white"/>
</g>
<g filter="url(#filter1_df)">
<path d="M663.139 194.317L629.275 183.972L655.167 159.817L663.139 194.317Z" fill="#AAAFCE" fill-opacity="0.35"/>
</g>
<g filter="url(#filter2_d)">
<circle cx="768" cy="209" r="10" fill="white"/>
</g>
<line opacity="0.3" x1="571.917" y1="404.666" x2="620.966" y2="434.561" stroke="url(#paint1_linear)" stroke-opacity="0.3" stroke-width="3" stroke-linecap="round" stroke-linejoin="round"/>
<line opacity="0.3" x1="787.445" y1="213.915" x2="884.245" y2="240.39" stroke="url(#paint2_linear)" stroke-opacity="0.45" stroke-width="3" stroke-linecap="round" stroke-linejoin="round"/>
<line x1="791.102" y1="242.586" x2="866.903" y2="349.207" stroke="url(#paint3_linear)" stroke-opacity="0.57" stroke-width="3" stroke-linecap="round" stroke-linejoin="round"/>
<line x1="664.896" y1="64.2744" x2="775.503" y2="115.836" stroke="url(#paint4_linear)" stroke-opacity="0.57" stroke-width="3" stroke-linecap="round" stroke-linejoin="round"/>
<line x1="783.286" y1="143.506" x2="772.936" y2="184.904" stroke="url(#paint5_linear)" stroke-opacity="0.57" stroke-width="3" stroke-linecap="round" stroke-linejoin="round"/>
<line x1="658.194" y1="194.282" x2="715.497" y2="240.124" stroke="url(#paint6_linear)" stroke-opacity="0.57" stroke-width="3" stroke-linecap="round" stroke-linejoin="round"/>
<line opacity="0.3" x1="757.452" y1="136.799" x2="670.796" y2="168.986" stroke="url(#paint7_linear)" stroke-opacity="0.45" stroke-width="3" stroke-linecap="round" stroke-linejoin="round"/>
<line opacity="0.3" x1="608.057" y1="67.0983" x2="564.455" y2="99.3958" stroke="url(#paint8_linear)" stroke-opacity="0.45" stroke-width="3" stroke-linecap="round" stroke-linejoin="round"/>
<line opacity="0.3" x1="759.712" y1="237.883" x2="753.134" y2="320.101" stroke="url(#paint9_linear)" stroke-opacity="0.45" stroke-width="3" stroke-linecap="round" stroke-linejoin="round"/>
<line x1="645.861" y1="166.839" x2="630.965" y2="66.7044" stroke="url(#paint10_linear)" stroke-opacity="0.45" stroke-width="3" stroke-linecap="round" stroke-linejoin="round"/>
<line opacity="0.3" x1="715.497" y1="385.786" x2="662.455" y2="428.221" stroke="url(#paint11_linear)" stroke-opacity="0.3" stroke-width="3" stroke-linecap="round" stroke-linejoin="round"/>
<line opacity="0.3" x1="687.113" y1="464.849" x2="846.057" y2="435.57" stroke="url(#paint12_linear)" stroke-opacity="0.3" stroke-width="3" stroke-linecap="round" stroke-linejoin="round"/>
<line x1="779.925" y1="373.573" x2="856.445" y2="408.954" stroke="url(#paint13_linear)" stroke-opacity="0.57" stroke-width="3" stroke-linecap="round" stroke-linejoin="round"/>
<line x1="664.883" y1="489.122" x2="742.103" y2="563.317" stroke="url(#paint14_linear)" stroke-opacity="0.57" stroke-width="3" stroke-linecap="round" stroke-linejoin="round"/>
<line x1="866.882" y1="443.129" x2="778.324" y2="565.105" stroke="url(#paint15_linear)" stroke-opacity="0.57" stroke-width="3" stroke-linecap="round" stroke-linejoin="round"/>
<path opacity="0.3" d="M612.118 495.447L538.665 552.955" stroke="url(#paint16_linear)" stroke-opacity="0.57" stroke-width="3" stroke-linecap="round" stroke-linejoin="round"/>
<g filter="url(#filter3_d)">
<path d="M763.842 588.211C764.908 589.402 766.872 588.922 767.269 587.373L772.143 568.345C772.525 566.856 771.154 565.511 769.672 565.921L752.108 570.781C750.678 571.176 750.161 572.937 751.151 574.043L763.842 588.211Z" fill="white"/>
</g>
<g filter="url(#filter4_d)">
<path d="M776.72 131.399C776.002 132.695 776.895 134.295 778.375 134.365L797.939 135.292C799.477 135.365 800.517 133.744 799.81 132.376L790.118 113.621C789.385 112.201 787.366 112.172 786.592 113.57L776.72 131.399Z" fill="white"/>
</g>
<g filter="url(#filter5_d)">
<path d="M902.931 230.237C901.575 229.492 899.923 230.503 899.969 232.05L901.158 271.784C901.204 273.321 902.894 274.233 904.204 273.428L937.789 252.788C939.096 251.985 939.05 250.07 937.705 249.331L902.931 230.237Z" fill="white"/>
</g>
<g filter="url(#filter6_d)">
<path d="M889.443 375.689C888.372 374.526 886.439 375.008 886.038 376.537L877.876 407.659C877.486 409.146 878.85 410.499 880.333 410.097L909.818 402.112C911.267 401.719 911.783 399.93 910.766 398.826L889.443 375.689Z" fill="white"/>
</g>
<g filter="url(#filter7_d)">
<path d="M740.239 343.314C740.603 341.83 742.429 341.285 743.546 342.327L768.522 365.631C769.635 366.669 769.226 368.522 767.778 368.994L734.42 379.884C732.929 380.37 731.483 379.03 731.857 377.506L740.239 343.314Z" fill="white"/>
</g>
<path d="M631.731 451.796L635.244 462.177L639.077 446.256L631.731 451.796Z" fill="#2F3973"/>
<path d="M623.057 446.256L631.732 451.874L639.077 446.256H623.057Z" fill="#131646"/>
<path d="M632.02 461.624L635.233 462.2L631.732 451.796L623.057 446.256L632.02 461.624Z" fill="#405096"/>
<path d="M646.246 446.256L656.117 455.353L642.091 463.496L646.246 446.256Z" fill="#405096"/>
<path d="M660.228 446.256L656.118 455.353L646.246 446.256H660.228Z" fill="#2F3973"/>
<path d="M642.091 463.441L662.244 466.886L656.117 455.308L642.091 463.441Z" fill="#131646"/>
<path d="M647.276 476.592L649.07 490.995L635.975 468.415L647.276 476.592Z" fill="#2F3973"/>
<path d="M659.119 472.548L647.253 476.592L635.975 468.415L659.119 472.548Z" fill="#131646"/>
<path d="M649.071 490.95L647.287 476.547L659.142 472.503L649.071 490.95Z" fill="#1F2658"/>
<path d="M617.572 449.026L613.141 475.539L629.15 468.737L617.572 449.026Z" fill="#2F3973"/>
<path d="M624.707 495.371L629.15 468.736L613.141 475.539L624.707 495.371Z" fill="#405096"/>
<path d="M643.83 493.731L624.707 495.371L629.15 468.736L643.83 493.731Z" fill="#2F3973"/>
<path d="M613.14 475.539L617.572 449.026L616.586 447.342C616.381 447.003 616.092 446.722 615.746 446.528C615.4 446.334 615.01 446.233 614.614 446.234H605.196C604.272 446.233 603.363 446.476 602.563 446.938C601.762 447.401 601.097 448.067 600.637 448.868C600.176 449.67 599.934 450.579 599.938 451.503C599.941 452.428 600.188 453.335 600.654 454.134L613.14 475.561V475.539Z" fill="#1F2658"/>
<path d="M643.83 493.732L624.707 495.371L631.078 506.296C631.542 507.093 632.207 507.756 633.007 508.216C633.807 508.676 634.714 508.918 635.637 508.918C636.56 508.918 637.467 508.676 638.267 508.216C639.067 507.756 639.732 507.093 640.196 506.296L644.993 498.03C645.2 497.679 645.309 497.28 645.309 496.873C645.309 496.465 645.2 496.066 644.993 495.715L643.83 493.732Z" fill="#131646"/>
<path d="M664.249 446.256H660.228L656.117 455.353L668.858 448.705C668.35 447.95 667.664 447.331 666.86 446.904C666.056 446.477 665.16 446.255 664.249 446.256Z" fill="#405096"/>
<path d="M667.208 457.901L669.091 454.455C669.578 453.564 669.811 452.557 669.764 451.543C669.717 450.529 669.392 449.547 668.825 448.705L666.842 449.735L656.084 455.275L662.211 466.853L667.208 457.901Z" fill="#2F3973"/>
<defs>
<filter id="filter0_d" x="535.993" y="94.1829" width="43.3829" height="44.3754" filterUnits="userSpaceOnUse" color-interpolation-filters="sRGB">
<feFlood flood-opacity="0" result="BackgroundImageFix"/>
<feColorMatrix in="SourceAlpha" type="matrix" values="0 0 0 0 0 0 0 0 0 0 0 0 0 0 0 0 0 0 127 0"/>
<feOffset/>
<feGaussianBlur stdDeviation="8"/>
<feColorMatrix type="matrix" values="0 0 0 0 0.262745 0 0 0 0 0.403922 0 0 0 0 0.619608 0 0 0 0.3 0"/>
<feBlend mode="normal" in2="BackgroundImageFix" result="effect1_dropShadow"/>
<feBlend mode="normal" in="SourceGraphic" in2="effect1_dropShadow" result="shape"/>
</filter>
<filter id="filter1_df" x="597.275" y="127.817" width="110.81" height="110.577" filterUnits="userSpaceOnUse" color-interpolation-filters="sRGB">
<feFlood flood-opacity="0" result="BackgroundImageFix"/>
<feColorMatrix in="SourceAlpha" type="matrix" values="0 0 0 0 0 0 0 0 0 0 0 0 0 0 0 0 0 0 127 0"/>
<feOffset/>
<feGaussianBlur stdDeviation="16"/>
<feColorMatrix type="matrix" values="0 0 0 0 0.870833 0 0 0 0 0.9845 0 0 0 0 1 0 0 0 1 0"/>
<feBlend mode="normal" in2="BackgroundImageFix" result="effect1_dropShadow"/>
<feBlend mode="normal" in="SourceGraphic" in2="effect1_dropShadow" result="shape"/>
<feGaussianBlur stdDeviation="6.5" result="effect2_foregroundBlur"/>
</filter>
<filter id="filter2_d" x="742" y="183" width="52" height="52" filterUnits="userSpaceOnUse" color-interpolation-filters="sRGB">
<feFlood flood-opacity="0" result="BackgroundImageFix"/>
<feColorMatrix in="SourceAlpha" type="matrix" values="0 0 0 0 0 0 0 0 0 0 0 0 0 0 0 0 0 0 127 0"/>
<feOffset/>
<feGaussianBlur stdDeviation="8"/>
<feColorMatrix type="matrix" values="0 0 0 0 0.262745 0 0 0 0 0.403922 0 0 0 0 0.619608 0 0 0 0.3 0"/>
<feBlend mode="normal" in2="BackgroundImageFix" result="effect1_dropShadow"/>
<feBlend mode="normal" in="SourceGraphic" in2="effect1_dropShadow" result="shape"/>
</filter>
<filter id="filter3_d" x="734.64" y="549.846" width="53.5678" height="55.0317" filterUnits="userSpaceOnUse" color-interpolation-filters="sRGB">
<feFlood flood-opacity="0" result="BackgroundImageFix"/>
<feColorMatrix in="SourceAlpha" type="matrix" values="0 0 0 0 0 0 0 0 0 0 0 0 0 0 0 0 0 0 127 0"/>
<feOffset/>
<feGaussianBlur stdDeviation="8"/>
<feColorMatrix type="matrix" values="0 0 0 0 0.262745 0 0 0 0 0.403922 0 0 0 0 0.619608 0 0 0 0.3 0"/>
<feBlend mode="normal" in2="BackgroundImageFix" result="effect1_dropShadow"/>
<feBlend mode="normal" in="SourceGraphic" in2="effect1_dropShadow" result="shape"/>
</filter>
<filter id="filter4_d" x="760.468" y="96.5387" width="55.5692" height="54.7555" filterUnits="userSpaceOnUse" color-interpolation-filters="sRGB">
<feFlood flood-opacity="0" result="BackgroundImageFix"/>
<feColorMatrix in="SourceAlpha" type="matrix" values="0 0 0 0 0 0 0 0 0 0 0 0 0 0 0 0 0 0 127 0"/>
<feOffset/>
<feGaussianBlur stdDeviation="8"/>
<feColorMatrix type="matrix" values="0 0 0 0 0.262745 0 0 0 0 0.403922 0 0 0 0 0.619608 0 0 0 0.3 0"/>
<feBlend mode="normal" in2="BackgroundImageFix" result="effect1_dropShadow"/>
<feBlend mode="normal" in="SourceGraphic" in2="effect1_dropShadow" result="shape"/>
</filter>
<filter id="filter5_d" x="883.969" y="213.987" width="70.7736" height="75.7404" filterUnits="userSpaceOnUse" color-interpolation-filters="sRGB">
<feFlood flood-opacity="0" result="BackgroundImageFix"/>
<feColorMatrix in="SourceAlpha" type="matrix" values="0 0 0 0 0 0 0 0 0 0 0 0 0 0 0 0 0 0 127 0"/>
<feOffset/>
<feGaussianBlur stdDeviation="8"/>
<feColorMatrix type="matrix" values="0 0 0 0 0.262745 0 0 0 0 0.403922 0 0 0 0 0.619608 0 0 0 0.3 0"/>
<feBlend mode="normal" in2="BackgroundImageFix" result="effect1_dropShadow"/>
<feBlend mode="normal" in="SourceGraphic" in2="effect1_dropShadow" result="shape"/>
</filter>
<filter id="filter6_d" x="861.809" y="359.043" width="65.488" height="67.126" filterUnits="userSpaceOnUse" color-interpolation-filters="sRGB">
<feFlood flood-opacity="0" result="BackgroundImageFix"/>
<feColorMatrix in="SourceAlpha" type="matrix" values="0 0 0 0 0 0 0 0 0 0 0 0 0 0 0 0 0 0 127 0"/>
<feOffset/>
<feGaussianBlur stdDeviation="8"/>
<feColorMatrix type="matrix" values="0 0 0 0 0.262745 0 0 0 0 0.403922 0 0 0 0 0.619608 0 0 0 0.3 0"/>
<feBlend mode="normal" in2="BackgroundImageFix" result="effect1_dropShadow"/>
<feBlend mode="normal" in="SourceGraphic" in2="effect1_dropShadow" result="shape"/>
</filter>
<filter id="filter7_d" x="715.797" y="325.788" width="69.3616" height="70.1968" filterUnits="userSpaceOnUse" color-interpolation-filters="sRGB">
<feFlood flood-opacity="0" result="BackgroundImageFix"/>
<feColorMatrix in="SourceAlpha" type="matrix" values="0 0 0 0 0 0 0 0 0 0 0 0 0 0 0 0 0 0 127 0"/>
<feOffset/>
<feGaussianBlur stdDeviation="8"/>
<feColorMatrix type="matrix" values="0 0 0 0 0.262745 0 0 0 0 0.403922 0 0 0 0 0.619608 0 0 0 0.3 0"/>
<feBlend mode="normal" in2="BackgroundImageFix" result="effect1_dropShadow"/>
<feBlend mode="normal" in="SourceGraphic" in2="effect1_dropShadow" result="shape"/>
</filter>
<radialGradient id="paint0_radial" cx="0" cy="0" r="1" gradientUnits="userSpaceOnUse" gradientTransform="translate(397.571 342.605) rotate(90) scale(342.605 343.428)">
<stop offset="0.510417" stop-color="#43679E"/>
<stop offset="1" stop-color="white" stop-opacity="0"/>
</radialGradient>
<linearGradient id="paint1_linear" x1="569.855" y1="405.167" x2="621.466" y2="436.622" gradientUnits="userSpaceOnUse">
<stop stop-color="#0094FF"/>
<stop offset="1" stop-color="#1B41A3"/>
</linearGradient>
<linearGradient id="paint2_linear" x1="785.603" y1="214.966" x2="885.296" y2="242.233" gradientUnits="userSpaceOnUse">
<stop stop-color="#0094FF"/>
<stop offset="1" stop-color="#1B41A3"/>
</linearGradient>
<linearGradient id="paint3_linear" x1="789.011" y1="242.233" x2="866.55" y2="351.299" gradientUnits="userSpaceOnUse">
<stop stop-color="#0094FF"/>
<stop offset="1" stop-color="#1B41A3"/>
</linearGradient>
<linearGradient id="paint4_linear" x1="662.902" y1="65.0001" x2="776.229" y2="117.829" gradientUnits="userSpaceOnUse">
<stop stop-color="#0094FF"/>
<stop offset="1" stop-color="#1B41A3" stop-opacity="0.36"/>
</linearGradient>
<linearGradient id="paint5_linear" x1="782.194" y1="141.687" x2="771.117" y2="185.996" gradientUnits="userSpaceOnUse">
<stop stop-color="#0094FF"/>
<stop offset="1" stop-color="#1B41A3" stop-opacity="0.36"/>
</linearGradient>
<linearGradient id="paint6_linear" x1="656.086" y1="194.516" x2="715.732" y2="242.233" gradientUnits="userSpaceOnUse">
<stop stop-color="#0094FF"/>
<stop offset="1" stop-color="#1B41A3" stop-opacity="0"/>
</linearGradient>
<linearGradient id="paint7_linear" x1="758.336" y1="134.871" x2="668.868" y2="168.102" gradientUnits="userSpaceOnUse">
<stop stop-color="#0094FF"/>
<stop offset="1" stop-color="#1B41A3"/>
</linearGradient>
<linearGradient id="paint8_linear" x1="608.369" y1="65.0001" x2="562.357" y2="99.0833" gradientUnits="userSpaceOnUse">
<stop stop-color="#0094FF"/>
<stop offset="1" stop-color="#1B41A3"/>
</linearGradient>
<linearGradient id="paint9_linear" x1="758.336" y1="236.268" x2="751.519" y2="321.476" gradientUnits="userSpaceOnUse">
<stop stop-color="#0094FF"/>
<stop offset="1" stop-color="#1B41A3"/>
</linearGradient>
<linearGradient id="paint10_linear" x1="647.565" y1="168.102" x2="632.228" y2="65" gradientUnits="userSpaceOnUse">
<stop stop-color="#0094FF" stop-opacity="0"/>
<stop offset="1" stop-color="#1B41A3"/>
</linearGradient>
<linearGradient id="paint11_linear" x1="715.731" y1="383.678" x2="660.346" y2="427.986" gradientUnits="userSpaceOnUse">
<stop stop-color="#0094FF"/>
<stop offset="1" stop-color="#1B41A3"/>
</linearGradient>
<linearGradient id="paint12_linear" x1="685.909" y1="466.596" x2="847.804" y2="436.773" gradientUnits="userSpaceOnUse">
<stop stop-color="#0094FF"/>
<stop offset="1" stop-color="#1B41A3"/>
</linearGradient>
<linearGradient id="paint13_linear" x1="777.934" y1="374.305" x2="857.177" y2="410.945" gradientUnits="userSpaceOnUse">
<stop stop-color="#1B41A3"/>
<stop offset="1" stop-color="#0094FF" stop-opacity="0"/>
</linearGradient>
<linearGradient id="paint14_linear" x1="662.762" y1="489.164" x2="742.146" y2="565.437" gradientUnits="userSpaceOnUse">
<stop stop-color="#1B41A3"/>
<stop offset="1" stop-color="#0094FF" stop-opacity="0"/>
</linearGradient>
<linearGradient id="paint15_linear" x1="866.55" y1="441.034" x2="776.229" y2="565.438" gradientUnits="userSpaceOnUse">
<stop stop-color="#0094FF"/>
<stop offset="1" stop-color="#1B41A3" stop-opacity="0"/>
</linearGradient>
<linearGradient id="paint16_linear" x1="627.301" y1="505.393" x2="537.252" y2="552.512" gradientUnits="userSpaceOnUse">
<stop stop-color="#0094FF"/>
<stop offset="1" stop-color="#1B41A3" stop-opacity="0"/>
</linearGradient>
</defs>
</svg>
