<svg width="200" height="70" viewBox="0 0 200 70" fill="none" xmlns="http://www.w3.org/2000/svg">
<rect width="200" height="70" fill="#D1E4FB" fill-opacity="0.2"/>
<path fill-rule="evenodd" clip-rule="evenodd" d="M116.738 16.0391L116.955 17.2946C116.968 17.3682 117.192 18.7057 117.192 20.8224C117.192 23.429 116.864 26.026 116.216 28.5578C115.338 31.9978 113.809 35.2549 111.704 38.168C109.272 41.5133 105.757 44.8087 100.632 47.4484L100.003 47.7669L99.376 47.4432C94.2516 44.7994 90.7358 41.5091 88.3038 38.1628C86.1992 35.2497 84.6701 31.9926 83.7922 28.5526C83.1442 26.0208 82.8164 23.4238 82.8159 20.8172C82.8159 18.7016 83.0405 17.3631 83.0535 17.2894L83.2705 16.0339C83.306 15.8275 83.2544 15.6161 83.1269 15.4461C82.9995 15.2761 82.8066 15.1615 82.5909 15.1275C82.3751 15.0936 82.154 15.143 81.9763 15.2649C81.7986 15.3868 81.6788 15.5712 81.6433 15.7776L81.4264 17.0331C81.4014 17.1773 81.1671 18.5947 81.166 20.8172C81.1675 23.5508 81.5124 26.2743 82.1933 28.9292C83.1193 32.5558 84.7319 35.9895 86.9511 39.0604C89.5176 42.5944 93.2427 46.0683 98.5939 48.8284L99.6114 49.3534C99.7313 49.4154 99.8655 49.4479 100.002 49.4479C100.138 49.4479 100.272 49.4154 100.392 49.3534L101.41 48.8284C106.762 46.0694 110.486 42.5955 113.053 39.0614C115.272 35.9905 116.885 32.5568 117.811 28.9303C118.491 26.275 118.836 23.5512 118.838 20.8172C118.838 18.5947 118.602 17.1763 118.579 17.0331L118.362 15.7776C118.345 15.6748 118.306 15.5763 118.25 15.4877C118.193 15.399 118.118 15.3221 118.03 15.2612C117.941 15.2003 117.841 15.1567 117.736 15.1329C117.63 15.1092 117.52 15.1057 117.413 15.1226C117.305 15.1396 117.202 15.1767 117.11 15.2318C117.018 15.2869 116.938 15.359 116.875 15.4438C116.812 15.5286 116.767 15.6245 116.743 15.7259C116.719 15.8274 116.716 15.9324 116.734 16.0349L116.738 16.0391Z" fill="black"/>
<path fill-rule="evenodd" clip-rule="evenodd" d="M87.7635 15.1861L100.002 11.6105L112.512 15.2639C112.616 15.2941 112.725 15.3045 112.832 15.2946C112.94 15.2846 113.044 15.2544 113.14 15.2058C113.235 15.1572 113.32 15.0911 113.388 15.0113C113.457 14.9314 113.509 14.8394 113.54 14.7405C113.572 14.6415 113.583 14.5376 113.572 14.4347C113.562 14.3318 113.53 14.2318 113.48 14.1405C113.429 14.0492 113.36 13.9684 113.276 13.9026C113.193 13.8369 113.096 13.7875 112.993 13.7573L100.242 10.0344C100.085 9.98853 99.9176 9.98853 99.761 10.0344L87.2862 13.6785C87.0774 13.7394 86.9024 13.8773 86.7997 14.0616C86.6971 14.246 86.6752 14.4618 86.739 14.6616C86.8027 14.8614 86.9468 15.0288 87.1395 15.127C87.3323 15.2251 87.5579 15.246 87.7668 15.1851L87.7635 15.1861Z" fill="black"/>
<path fill-rule="evenodd" clip-rule="evenodd" d="M81.7224 16.2702L99.2696 49.0242C99.3381 49.1522 99.4419 49.2598 99.5698 49.3354C99.6977 49.411 99.8448 49.4516 99.9951 49.4529C100.145 49.4542 100.293 49.4161 100.423 49.3427C100.552 49.2693 100.658 49.1635 100.729 49.0367L111.428 29.896L111.444 29.8659L118.292 16.2526C118.387 16.0643 118.399 15.8478 118.327 15.6507C118.255 15.4536 118.104 15.292 117.907 15.2015C117.71 15.1109 117.484 15.0989 117.278 15.1679C117.072 15.237 116.903 15.3816 116.808 15.5698L109.968 29.1624L100.018 46.9625L83.189 15.5522C83.1404 15.459 83.073 15.376 82.9906 15.3079C82.9082 15.2398 82.8126 15.188 82.7091 15.1555C82.6057 15.123 82.4966 15.1105 82.3881 15.1186C82.2795 15.1267 82.1738 15.1553 82.0769 15.2028C81.98 15.2503 81.8939 15.3157 81.8236 15.3952C81.7533 15.4747 81.7002 15.5667 81.6673 15.666C81.6345 15.7652 81.6225 15.8697 81.6321 15.9735C81.6418 16.0772 81.6728 16.178 81.7235 16.2702H81.7224Z" fill="black"/>
<path fill-rule="evenodd" clip-rule="evenodd" d="M90.1199 30.8541H109.631C109.849 30.8541 110.058 30.7712 110.213 30.6235C110.367 30.4758 110.454 30.2755 110.454 30.0666C110.454 29.8577 110.367 29.6574 110.213 29.5097C110.058 29.362 109.849 29.2791 109.631 29.2791H90.1199C89.9016 29.2791 89.6921 29.362 89.5377 29.5097C89.3833 29.6574 89.2966 29.8577 89.2966 30.0666C89.2966 30.2755 89.3833 30.4758 89.5377 30.6235C89.6921 30.7712 89.9016 30.8541 90.1199 30.8541ZM79.3493 54.3164H73.7909C73.695 54.317 73.6032 54.3536 73.5354 54.4185C73.4675 54.4834 73.4292 54.5712 73.4286 54.663V58.9306C73.4295 59.0223 73.4679 59.11 73.5357 59.1748C73.6034 59.2396 73.6951 59.2764 73.7909 59.2772H79.3493V59.9973H73.7909C73.6443 59.9978 73.4991 59.9706 73.3635 59.9172C73.228 59.8638 73.1048 59.7852 73.0011 59.6861C72.8975 59.5869 72.8153 59.4691 72.7595 59.3395C72.7037 59.2098 72.6752 59.0709 72.6758 58.9306V54.663C72.6752 54.5227 72.7037 54.3838 72.7595 54.2541C72.8153 54.1245 72.8975 54.0067 73.0011 53.9075C73.1048 53.8083 73.228 53.7298 73.3635 53.6764C73.4991 53.623 73.6443 53.5958 73.7909 53.5963H79.3493V54.3164ZM89.788 53.5963V54.3164H84.4347V56.4321H88.7379V57.1584H84.4347V59.2741H89.788V59.9942H83.6818V53.5963H89.788Z" fill="black"/>
<path d="M100.811 54.6709V56.5469C100.811 56.6871 100.783 56.8261 100.727 56.9557C100.671 57.0854 100.589 57.2032 100.485 57.3024C100.382 57.4015 100.258 57.4801 100.123 57.5335C99.9872 57.5869 99.842 57.6141 99.6954 57.6136H98.6735L100.774 60H99.7789L97.6875 57.6136H95.2294C95.1081 57.6077 94.9871 57.5959 94.8671 57.5783V59.9969H94.1143V53.6043H99.691C99.8376 53.6037 99.9829 53.6309 100.118 53.6843C100.254 53.7377 100.377 53.8163 100.481 53.9154C100.585 54.0146 100.667 54.1324 100.722 54.2621C100.778 54.3917 100.807 54.5307 100.806 54.6709H100.811ZM95.2294 56.8852H99.691C99.7376 56.8857 99.7839 56.8773 99.8271 56.8605C99.8702 56.8437 99.9094 56.8188 99.9424 56.7873C99.9753 56.7558 100.001 56.7183 100.019 56.677C100.037 56.6357 100.045 56.5915 100.045 56.5469V54.6709C100.045 54.6257 100.037 54.5807 100.019 54.5387C100.002 54.4967 99.9758 54.4584 99.9427 54.426C99.9109 54.3929 99.8721 54.3665 99.829 54.3486C99.7858 54.3308 99.7392 54.3218 99.6921 54.3223H95.2294C95.1335 54.3228 95.0417 54.3595 94.9738 54.4244C94.906 54.4893 94.8677 54.5771 94.8671 54.6688V56.5448C94.8665 56.5898 94.8759 56.6344 94.8946 56.6757C94.9132 56.7171 94.9409 56.7541 94.9756 56.7845C95.0088 56.8165 95.0483 56.8419 95.0919 56.8592C95.1355 56.8765 95.1822 56.8853 95.2294 56.8852Z" fill="black"/>
<path fill-rule="evenodd" clip-rule="evenodd" d="M104.807 53.5959H111.5V54.316H108.535V59.9969H107.783V54.316H104.807V53.5959ZM115.552 59.9969V53.5959H116.305V59.9969H115.552ZM126.352 53.5959H127.318L124.517 56.7938L127.325 59.9948H126.348L123.853 57.1591H121.697V59.9948H120.938V53.5959H121.697V56.4317H123.853L126.352 53.5959Z" fill="black"/>
</svg>
