<svg width="200" height="70" viewBox="0 0 200 70" fill="none" xmlns="http://www.w3.org/2000/svg">
<rect width="200" height="70" fill="#D1E4FB" fill-opacity="0.2"/>
<path d="M61.4019 29.9054C61.3164 29.8504 61.2314 29.8054 61.1469 29.7554C60.1469 29.2054 58.9964 29.0404 57.8719 29.2904C57.8364 29.3004 57.7969 29.3104 57.7619 29.3154C56.5919 29.6054 55.5919 30.3254 54.9464 31.3454C54.9264 31.3804 54.9069 31.4154 54.8869 31.4504C54.2664 32.4854 54.0714 33.6954 54.3364 34.8804C54.4069 35.1804 54.5014 35.4704 54.6219 35.7504V35.7554C54.6414 35.8304 54.6569 35.9054 54.6764 35.9804C55.0669 37.7304 54.7114 39.6204 53.6964 41.1754C52.6819 42.7254 51.0964 43.8054 49.3419 44.1504L49.2919 44.1604H49.2414C49.1819 44.1604 49.1264 44.1754 49.0714 44.1804C49.0264 44.1904 48.9769 44.1954 48.9319 44.2004L48.7864 44.2154C48.7019 44.2254 48.6119 44.2304 48.5264 44.2504L47.5814 44.5354L47.5614 44.5454L47.5419 44.5504C47.5219 44.5604 47.4014 44.6254 47.4014 44.6254C47.1669 44.7404 47.0014 44.8304 46.8619 44.9254C46.7819 44.9754 46.7064 45.0354 46.6264 45.1004C46.4814 45.2104 46.3314 45.3354 46.1864 45.4754L46.1614 45.4954C46.1064 45.5504 46.0469 45.6054 45.9914 45.6654C45.7719 45.9054 45.6019 46.1154 45.4669 46.3304C44.7969 47.3854 44.5814 48.6404 44.8519 49.8604C45.1264 51.0804 45.8564 52.1204 46.9114 52.7904C49.0919 54.1704 51.9869 53.5204 53.3719 51.3404C53.5064 51.1254 53.6314 50.8754 53.7469 50.5804C53.7819 50.5004 53.8014 50.4304 53.8269 50.3604L53.8364 50.3204C53.8969 50.1304 53.9464 49.9454 53.9869 49.7754C54.0064 49.6754 54.0264 49.5804 54.0419 49.4854C54.0669 49.3004 54.0814 49.1054 54.0814 48.8904C54.0814 48.8454 54.0864 48.8054 54.0864 48.7604C54.0864 48.7354 54.0919 48.7104 54.0919 48.6854L53.9364 47.6554C53.9014 47.5304 53.8519 47.3954 53.8014 47.2554L53.7819 47.1954C53.7664 47.1504 53.7514 47.1054 53.7414 47.0654C53.7369 47.0504 53.7314 47.0304 53.7269 47.0154L53.7169 46.9804L53.7019 46.9354C53.6819 46.8604 53.6614 46.7854 53.6469 46.7104C53.2514 44.9604 53.6119 43.0654 54.6264 41.5154C55.6369 39.9654 57.2269 38.8804 58.9814 38.5404L59.0164 38.5354C60.5269 38.4954 61.9919 37.7304 62.8619 36.3604C63.5314 35.3054 63.7464 34.0554 63.4719 32.8354C63.3419 32.2504 63.1014 31.7104 62.7769 31.2304C62.4169 30.7054 61.9519 30.2554 61.4019 29.9054Z" fill="#00EDC3"/>
<path d="M55.8523 45.1854C55.8468 45.2854 55.8468 45.3854 55.8523 45.4804C55.8723 46.6204 56.3073 47.7004 57.0868 48.5504C57.1123 48.5804 57.1373 48.6054 57.1673 48.6304C58.0073 49.5004 59.1273 50.0054 60.3368 50.0554C60.3773 50.0554 60.4173 50.0554 60.4573 50.0554C61.6618 50.0754 62.8123 49.6404 63.7023 48.8204C63.9268 48.6104 64.1323 48.3854 64.3123 48.1404C64.3673 48.0854 64.4218 48.0304 64.4818 47.9804C65.7968 46.7654 67.6173 46.1304 69.4723 46.2304C71.3168 46.3354 73.0518 47.1654 74.2223 48.5154L74.2573 48.5554L74.2818 48.6004C74.3123 48.6504 74.3518 48.6904 74.3868 48.7354C74.4173 48.7704 74.4468 48.8104 74.4768 48.8504L74.5623 48.9654C74.6123 49.0354 74.6618 49.1054 74.7223 49.1754L75.4418 49.8504L75.4618 49.8604L75.4768 49.8754C75.4968 49.8904 75.6123 49.9604 75.6123 49.9604C75.8273 50.1054 75.9873 50.2054 76.1418 50.2804C76.2268 50.3204 76.3168 50.3604 76.4118 50.4004C76.5823 50.4704 76.7618 50.5354 76.9573 50.5954L76.9873 50.6054C77.0623 50.6254 77.1368 50.6504 77.2173 50.6704C77.5368 50.7454 77.8018 50.7804 78.0573 50.7904C79.3073 50.8404 80.5023 50.4054 81.4218 49.5554C82.3423 48.7104 82.8773 47.5554 82.9268 46.3054C83.0318 43.7254 81.0168 41.5454 78.4418 41.4404C78.1873 41.4304 77.9118 41.4454 77.5973 41.4954C77.5118 41.5054 77.4418 41.5204 77.3673 41.5354L77.3273 41.5454C77.1323 41.5854 76.9468 41.6354 76.7818 41.6904C76.6823 41.7204 76.5923 41.7554 76.5023 41.7904C76.3273 41.8604 76.1523 41.9454 75.9673 42.0554C75.9268 42.0754 75.8918 42.0954 75.8518 42.1154C75.8323 42.1254 75.8073 42.1404 75.7818 42.1504L74.9723 42.8004C74.8823 42.8954 74.7868 43.0004 74.6918 43.1154L74.6523 43.1654C74.6218 43.2004 74.5868 43.2354 74.5623 43.2654C74.5518 43.2754 74.5368 43.2904 74.5273 43.3054L74.5023 43.3304L74.4723 43.3654C74.4173 43.4204 74.3623 43.4754 74.3018 43.5254C72.9818 44.7404 71.1673 45.3754 69.3123 45.2754C67.4618 45.1754 65.7318 44.3404 64.5573 42.9904L64.5168 42.9454C63.7268 41.6554 62.3323 40.7704 60.7118 40.7004C59.4673 40.6504 58.2723 41.0854 57.3523 41.9354C56.9118 42.3404 56.5618 42.8154 56.3073 43.3404C56.0368 43.9054 55.8768 44.5304 55.8523 45.1854Z" fill="#00EDC3"/>
<path d="M71.957 42.4555C72.0465 42.4105 72.132 42.3605 72.2115 42.3105C73.187 41.7205 73.9065 40.8055 74.252 39.7055C74.2615 39.6705 74.272 39.6355 74.2815 39.5955C74.617 38.4355 74.492 37.2155 73.932 36.1405C73.9115 36.1055 73.8915 36.0705 73.8715 36.0355C73.2865 34.9805 72.332 34.2055 71.1765 33.8455C70.882 33.7555 70.582 33.6905 70.2815 33.6605C70.207 33.6405 70.132 33.6155 70.057 33.5955C68.347 33.0605 66.8865 31.8055 66.0465 30.1505C65.2115 28.5005 65.0665 26.5855 65.652 24.8905L65.667 24.8405L65.6915 24.7955C65.717 24.7455 65.737 24.6905 65.757 24.6355C65.772 24.5905 65.792 24.5455 65.812 24.5005L65.8715 24.3655C65.9065 24.2855 65.9415 24.2055 65.972 24.1255L66.1965 23.1655V23.1405L66.202 23.1205C66.202 23.0955 66.207 22.9605 66.207 22.9605C66.2265 22.7005 66.2265 22.5155 66.222 22.3405C66.217 22.2455 66.202 22.1505 66.1915 22.0505C66.1715 21.8655 66.1365 21.6755 66.0865 21.4805L66.082 21.4505C66.062 21.3755 66.0465 21.2955 66.022 21.2205C65.9265 20.9055 65.827 20.6555 65.707 20.4355C65.127 19.3255 64.152 18.5105 62.957 18.1405C61.7615 17.7655 60.4965 17.8805 59.3865 18.4605C57.102 19.6605 56.217 22.4955 57.417 24.7805C57.5365 25.0055 57.6865 25.2355 57.8865 25.4855C57.9415 25.5555 57.987 25.6105 58.0365 25.6605L58.062 25.6905C58.1965 25.8405 58.332 25.9755 58.4615 26.0905C58.5365 26.1605 58.612 26.2255 58.687 26.2805C58.8365 26.3955 58.9965 26.5055 59.182 26.6105C59.222 26.6355 59.257 26.6555 59.292 26.6805C59.312 26.6955 59.332 26.7105 59.3565 26.7205L60.327 27.1005C60.452 27.1355 60.592 27.1605 60.742 27.1855L60.807 27.1955C60.8565 27.2055 60.897 27.2155 60.9415 27.2255C60.957 27.2305 60.9765 27.2355 60.992 27.2355L61.027 27.2405L61.0715 27.2505C61.147 27.2705 61.222 27.2905 61.2965 27.3155C63.007 27.8505 64.467 29.1055 65.307 30.7605C66.1415 32.4105 66.2865 34.3305 65.707 36.0205L65.6965 36.0555C64.972 37.3805 64.902 39.0355 65.6565 40.4705C66.237 41.5755 67.2115 42.3905 68.4065 42.7605C68.9765 42.9405 69.5665 43.0055 70.1415 42.9605C70.757 42.9305 71.377 42.7555 71.957 42.4555Z" fill="#00EDC3"/>
<path d="M87.8213 45.17V27.969H90.6688V45.17H87.8213ZM97.8573 35.5075V37.4215H91.6258V35.5075H97.8573ZM91.6258 27.969H98.5808V30.0925H91.6258V27.969ZM109.667 27.992L115.642 45.17H112.748L108.29 32.2865L103.786 45.17H100.868L106.89 27.992H109.667ZM106.703 39.7085H109.831L110.508 41.599H106.05L106.703 39.7085ZM118.303 27.969H131.397V29.8825H126.262V45.17H123.438V29.8825H118.303V27.969ZM134.804 45.17V27.969H137.652V45.17H134.804ZM144.84 35.5075V37.4215H138.609V35.5075H144.84ZM138.609 27.969H145.564V30.0925H138.609V27.969ZM151.422 27.969V45.17H148.575V27.969H151.422Z" fill="#0E1134"/>
</svg>
