<svg width="200" height="94" viewBox="0 0 200 94" fill="none" xmlns="http://www.w3.org/2000/svg">
<rect width="200" height="70" transform="translate(0 12)" fill="#D1E4FB" fill-opacity="0.2"/>
<path d="M117.5 64.5C127.165 54.835 127.165 39.165 117.5 29.5C107.835 19.835 92.165 19.835 82.5 29.5C72.835 39.165 72.835 54.835 82.5 64.5C92.165 74.165 107.835 74.165 117.5 64.5Z" fill="#24479E"/>
<path d="M116.462 63.4618C125.554 54.3702 125.554 39.6298 116.462 30.5382C107.37 21.4467 92.63 21.4467 83.5384 30.5382C74.4468 39.6298 74.4468 54.3702 83.5384 63.4618C92.63 72.5533 107.37 72.5533 116.462 63.4618Z" fill="white"/>
<path d="M99.999 24.0491C112.672 24.0491 122.95 34.3223 122.95 46.999C122.95 51.3025 121.741 55.5194 119.46 59.1685C117.178 62.8176 113.917 65.7519 110.048 67.6366C111.715 66.2904 113.325 64.855 114.627 63.1415C116.72 60.3852 117.522 56.9834 117.238 53.6505C116.94 50.1682 115.455 46.7597 113.018 44.2427C111.434 42.6077 109.455 41.3992 107.331 40.5996C104.466 39.5209 101.264 39.3891 98.2681 40.1286C95.443 40.8264 93.0045 42.0669 90.9993 44.2514C90.3732 42.2927 89.533 40.6161 88.81 38.9074C88.0424 37.0951 87.1759 35.5105 86.1195 34.3426C84.8325 32.9189 83.5997 32.8647 81.8833 32.9063C84.0272 30.1459 86.7743 27.9126 89.9143 26.3774C93.0543 24.8422 96.5039 24.0458 99.999 24.0491Z" fill="#E51B23"/>
<path d="M100.06 27.2861L101.155 30.7529L104.728 30.7509L101.833 32.8918L102.932 36.3576L100.046 34.2138L97.1535 36.3576L98.2661 32.8918L95.3789 30.7509L98.9513 30.7529L100.06 27.2861Z" fill="#FFF200"/>
<path d="M105.815 69.2059C103.917 69.7021 101.963 69.9526 100 69.9512C87.3274 69.9512 77.0503 59.6779 77.0503 47.0002C77.0427 42.0631 78.6347 37.2564 81.588 33.3C82.3633 33.2797 83.0417 33.2622 83.6639 33.3679C82.9623 36.0815 82.9661 38.393 83.0243 41.1338L90.3541 43.6605L90.5024 44.1169L82.9206 41.5002C81.1208 43.8931 79.5585 46.8074 78.6369 49.3117C78.8887 50.8606 79.2746 52.3847 79.7902 53.8668C80.3015 55.3537 80.967 56.7829 81.776 58.1311C84.1388 59.6518 86.8031 60.5909 89.4005 61.406C90.2882 60.1838 91.1779 58.9511 92.0725 57.6902C92.8187 56.6396 93.5566 55.5822 94.286 54.5181L91.1925 44.6325C93.1308 42.5701 95.6584 41.1765 98.3643 40.5087C100.09 40.0796 101.878 39.9514 103.647 40.1298C105.284 41.4178 107.018 42.6826 108.816 43.9522L111.183 43.1342C111.304 43.2263 111.423 43.3193 111.541 43.4153L108.896 44.3302L105.712 54.5142C106.44 55.5784 107.178 56.6357 107.925 57.6863C108.82 58.9462 109.71 60.18 110.598 61.4021C112.488 60.8119 114.415 60.1528 116.234 59.2534C115.805 60.5706 115.158 61.8068 114.322 62.9111C113.557 63.9009 112.705 64.8204 111.777 65.6587C109.766 67.505 108.511 68.5013 105.815 69.2059Z" fill="#24479E"/>
<path d="M105.325 54.627C106.079 55.7305 106.842 56.8244 107.613 57.9086C108.486 59.1414 109.387 60.3858 110.294 61.6341C108.706 63.9295 106.792 65.9806 104.611 67.7224C101.564 68.3052 98.4349 68.3052 95.3883 67.7224C93.2072 65.9809 91.2925 63.9297 89.7051 61.6341C90.6122 60.3858 91.5106 59.1414 92.3858 57.9086C93.156 56.8231 93.9187 55.7292 94.674 54.627H105.325Z" fill="white"/>
<path d="M80.9059 59.1319C78.9608 56.0786 77.7812 52.601 77.4673 48.9944L78.2659 49.4179C78.5218 50.9732 78.9109 52.5037 79.4289 53.9924C79.9319 55.4558 80.5813 56.8647 81.3672 58.1976L80.9059 59.1319Z" fill="white"/>
<path d="M105.405 68.9655C101.854 69.8352 98.1455 69.8352 94.5942 68.9655L95.4568 68.1223C98.4594 68.6806 101.539 68.6806 104.542 68.1223L105.405 68.9655Z" fill="white"/>
<path d="M98.8896 59.2559H102.651V60.2638H100.513V61.5189H102.486V62.5278H100.513V64.5853H98.8896V59.2559Z" fill="#E51B23"/>
<path d="M103.083 59.2559H106.844V60.2638H104.707V61.5189H106.681V62.5278H104.707V64.5853H103.083V59.2559Z" fill="#E51B23"/>
<path d="M96.7524 64.5853H95.067L93.1558 59.2559H94.8004L96.0536 62.7536L97.1226 59.2559H98.6645L96.7524 64.5853Z" fill="#E51B23"/>
</svg>
