<svg width="200" height="70" viewBox="0 0 200 70" fill="none" xmlns="http://www.w3.org/2000/svg">
<rect width="200" height="70" fill="#D1E4FB" fill-opacity="0.2"/>
<g clip-path="url(#clip0)">
<path d="M103.922 28.2189C105.232 29.3751 105.887 31.0939 105.887 33.3126V44.8439H103.017V34.3126C103.017 32.4376 102.612 31.0626 101.801 30.2189C100.99 29.3751 99.9289 28.9689 98.5875 28.9689C97.6472 28.9675 96.7189 29.1813 95.8736 29.5939C94.999 30.0626 94.2826 30.7803 93.8147 31.6564C93.2532 32.5939 93.0036 33.8126 93.0036 35.2501V44.8439H90.1025V27.3439L92.7541 28.4376L92.8165 29.6251C93.3655 28.5729 94.2415 27.7283 95.3121 27.2189C96.4185 26.6788 97.6377 26.4109 98.8683 26.4376C100.906 26.4376 102.591 27.0314 103.922 28.2189Z" fill="#000033"/>
<path d="M126.382 36.906H112.812C112.968 38.7498 113.592 40.156 114.621 41.156C115.651 42.156 117.023 42.6873 118.676 42.6873C119.817 42.719 120.949 42.4836 121.983 41.9998C122.811 41.5875 123.448 40.871 123.761 39.9998L126.163 41.281C125.509 42.5087 124.512 43.5187 123.293 44.1873C122.108 44.8748 120.548 45.2185 118.676 45.2185C115.963 45.2185 113.841 44.3748 112.282 42.7185C110.722 41.0623 109.973 38.7498 109.973 35.8123C109.973 32.8748 110.691 30.5935 112.188 28.9373C113.685 27.281 115.744 26.4373 118.458 26.4373C119.99 26.3963 121.503 26.786 122.825 27.5623C124.025 28.2815 124.989 29.3347 125.602 30.5935C126.237 31.9299 126.557 33.3947 126.538 34.8748C126.532 35.5546 126.48 36.2333 126.382 36.906ZM114.621 30.3748C113.654 31.3123 113.061 32.6248 112.843 34.3435H123.761C123.574 32.656 123.013 31.3435 122.108 30.406C121.203 29.4685 119.987 28.9685 118.458 28.9685C116.93 28.9685 115.588 29.4373 114.621 30.3748Z" fill="#000033"/>
<path d="M145.597 28.937C147.157 30.5933 147.937 32.8745 147.937 35.812C147.937 38.7495 147.157 41.062 145.597 42.7183C144.038 44.3745 141.916 45.2183 139.202 45.2183C136.488 45.2183 134.367 44.3745 132.807 42.7183C131.248 41.062 130.499 38.7495 130.499 35.812C130.499 32.8745 131.279 30.5933 132.807 28.937C134.336 27.2808 136.488 26.437 139.202 26.437C141.916 26.437 144.069 27.2808 145.597 28.937ZM134.929 30.7808C133.899 31.9995 133.369 33.687 133.369 35.812C133.369 37.937 133.899 39.6558 134.929 40.8745C135.958 42.0933 137.393 42.7183 139.202 42.7183C141.012 42.7183 142.478 42.0933 143.507 40.8745C144.537 39.6558 145.036 37.9683 145.036 35.812C145.036 33.6558 144.537 31.9995 143.507 30.7808C142.478 29.562 141.043 28.937 139.202 28.937C137.362 28.937 135.958 29.5308 134.929 30.7808Z" fill="#000033"/>
<path d="M50.9526 22.9688V48.0625L67.2363 53.9062V28.5938L84.7989 22.125L68.8584 16.4062L50.9526 22.9688Z" fill="#00E599"/>
<path d="M68.5474 29.531V43.0623L84.7998 48.8748V23.4998L68.5474 29.531Z" fill="#00AF92"/>
</g>
<defs>
<clipPath id="clip0">
<rect width="98.5714" height="40" fill="white" transform="translate(50.7144 15)"/>
</clipPath>
</defs>
</svg>
