<svg width="200" height="70" viewBox="0 0 200 70" fill="none" xmlns="http://www.w3.org/2000/svg">
<rect width="200" height="70" fill="#D1E4FB" fill-opacity="0.2"/>
<g clip-path="url(#clip0)">
<path d="M57.025 46.9628C63.6662 46.9628 69.05 41.5012 69.05 34.764C69.05 28.0268 63.6662 22.5652 57.025 22.5652C50.3838 22.5652 45 28.0268 45 34.764C45 41.5012 50.3838 46.9628 57.025 46.9628Z" fill="#1D58EC"/>
<path d="M50.4572 39.0858L55.6507 28.9825L55.6693 28.9635V28.9446C55.6693 28.932 55.6755 28.9193 55.688 28.9067C55.7004 28.8941 55.7066 28.8814 55.7066 28.8688C55.7066 28.8562 55.7128 28.8435 55.7252 28.8309C55.75 28.8056 55.7686 28.7867 55.781 28.774V28.7551L55.8555 28.6792L55.8741 28.6602L55.9113 28.6413V28.6224L55.9299 28.6034L55.9672 28.5844L55.9858 28.5465L56.023 28.5276L56.0975 28.4518H56.1161C56.1285 28.4391 56.1409 28.4265 56.1533 28.4138C56.1781 28.3886 56.1906 28.3759 56.1906 28.3759C56.2278 28.3759 56.2526 28.3633 56.265 28.338H56.2836L56.3022 28.3191L56.4139 28.2622L56.4512 28.2432C56.6373 28.1927 56.8173 28.1548 56.9909 28.1295H57.0468C57.2206 28.1422 57.4005 28.1801 57.5867 28.2432L57.6611 28.2812L57.6797 28.3001H57.6984L57.7355 28.3191L57.7541 28.338H57.7728C57.7976 28.3633 57.8162 28.3759 57.8287 28.3759H57.8472C57.8844 28.4138 57.9155 28.4391 57.9403 28.4518L57.9775 28.4707L58.1078 28.5844H58.1264L58.1451 28.6034V28.6224L58.1823 28.6413L58.201 28.6792V28.6982V28.7171L58.2381 28.7361V28.7551L58.2567 28.774C58.2692 28.7867 58.2816 28.8056 58.294 28.8309C58.3064 28.8435 58.3126 28.8562 58.3126 28.8688C58.3374 28.8941 58.3498 28.9193 58.3498 28.9446H58.3684V28.9635L58.387 28.9825L63.5992 39.0858C63.7978 39.4649 63.8288 39.863 63.6923 40.28C63.5682 40.6971 63.3138 41.0067 62.9291 41.2088C62.5568 41.3984 62.1659 41.43 61.7563 41.3036C61.3468 41.1772 61.049 40.9245 60.8628 40.5454L57.0282 33.0959L53.175 40.5454C52.9888 40.9245 52.691 41.1835 52.2814 41.3226C51.8719 41.4489 51.4748 41.411 51.0901 41.2088C50.7178 41.0067 50.4696 40.6971 50.3455 40.28C50.2214 39.863 50.2587 39.4649 50.4572 39.0858ZM58.5732 39.0858V39.8061C58.5732 40.2484 58.4181 40.6275 58.1078 40.9434C57.81 41.2467 57.4439 41.3984 57.0096 41.3984C56.5877 41.3984 56.2216 41.2467 55.9113 40.9434C55.6135 40.6275 55.4646 40.2484 55.4646 39.8061V39.0858C55.4646 38.6435 55.6135 38.2707 55.9113 37.9674C56.2216 37.6641 56.5877 37.5125 57.0096 37.5125C57.4439 37.5125 57.81 37.6641 58.1078 37.9674C58.4181 38.2707 58.5732 38.6435 58.5732 39.0858Z" fill="white"/>
<path fill-rule="evenodd" clip-rule="evenodd" d="M96.3578 22.6371C96.7116 22.7834 96.9423 23.128 96.9423 23.5102V46.2286C96.9423 46.7505 96.5183 47.1736 95.9955 47.1736C95.4726 47.1736 95.0486 46.7505 95.0486 46.2286V25.7917L73.8654 46.9346C73.4955 47.3036 72.8961 47.3036 72.5263 46.9346C72.1566 46.5655 72.1566 45.9672 72.5263 45.5981L95.3259 22.842C95.5967 22.5717 96.004 22.4909 96.3578 22.6371Z" fill="#4D566D"/>
<path fill-rule="evenodd" clip-rule="evenodd" d="M101.297 22.6031C101.82 22.6031 102.244 23.0262 102.244 23.5482V46.2287C102.244 46.7506 101.82 47.1737 101.297 47.1737C100.774 47.1737 100.351 46.7506 100.351 46.2287V23.5482C100.351 23.0262 100.774 22.6031 101.297 22.6031Z" fill="#4D566D"/>
<path fill-rule="evenodd" clip-rule="evenodd" d="M117.924 45.3213C123.724 45.3213 128.415 40.6448 128.415 34.8882C128.415 29.1317 123.724 24.4552 117.924 24.4552C112.125 24.4552 107.433 29.1317 107.433 34.8882C107.433 40.6448 112.125 45.3213 117.924 45.3213ZM117.924 47.2113C124.764 47.2113 130.308 41.6941 130.308 34.8882C130.308 28.0824 124.764 22.5652 117.924 22.5652C111.084 22.5652 105.54 28.0824 105.54 34.8882C105.54 41.6941 111.084 47.2113 117.924 47.2113Z" fill="#4D566D"/>
<path fill-rule="evenodd" clip-rule="evenodd" d="M130.309 23.5482C130.309 23.0262 130.733 22.6031 131.256 22.6031H153.98C154.362 22.6031 154.707 22.8327 154.854 23.1851C155.001 23.5374 154.921 23.9434 154.651 24.2142L133.682 45.2836H153.904C154.426 45.2836 154.851 45.7068 154.851 46.2287C154.851 46.7506 154.426 47.1737 153.904 47.1737H131.407C131.025 47.1737 130.68 46.9441 130.533 46.5918C130.386 46.2394 130.466 45.8334 130.735 45.5627L151.704 24.4932H131.256C130.733 24.4932 130.309 24.0701 130.309 23.5482Z" fill="#4D566D"/>
</g>
<defs>
<clipPath id="clip0">
<rect width="110" height="24.8696" fill="white" transform="translate(45 22.5652)"/>
</clipPath>
</defs>
</svg>
