<svg width="200" height="70" viewBox="0 0 200 70" fill="none" xmlns="http://www.w3.org/2000/svg">
<rect width="200" height="70" fill="#D1E4FB" fill-opacity="0.2"/>
<path d="M102.192 45.3894L107.263 32.3342H108.17L102.687 46.1178H101.642L96.1729 32.3342H97.1211L102.165 45.3894H102.192ZM111.66 46.1178V32.3342H112.554V46.1178H111.66ZM116.044 33.0626V32.3342H127.602V33.0626H122.283V46.1178H121.349V33.0626H116.044ZM131.092 32.3342H141.206V33.0626H132.013V38.587H140.657V39.3153H132.013V45.3757H141.316V46.104H131.092V32.3342Z" fill="black"/>
<path d="M58.8623 23.2914L73.9789 19.8833L72.4672 58.1282L58.8623 23.2914ZM77.5656 19.0038L107.771 11.8853L73.0856 57.6747L77.5656 19.0038Z" fill="#007AFF"/>
</svg>
