<svg width="200" height="70" viewBox="0 0 200 70" fill="none" xmlns="http://www.w3.org/2000/svg">
<rect width="200" height="70" fill="#D1E4FB" fill-opacity="0.2"/>
<g clip-path="url(#clip0)">
<path d="M79.591 34.7494C79.5533 33.8189 79.7002 32.8902 80.0232 32.0168C80.3463 31.1434 80.839 30.3426 81.4731 29.6607C82.1073 28.9787 82.8701 28.429 83.7177 28.0434C84.5654 27.6578 85.481 27.4438 86.4117 27.4138H86.7009C90.2981 27.4138 92.4212 29.5298 93.049 32.0056L90.813 32.7533C90.6122 31.8307 90.0863 31.0111 89.3314 30.4439C88.5765 29.8768 87.6429 29.5999 86.7009 29.6639C84.3733 29.6639 82.0386 31.3637 82.0386 34.7917C82.0386 38.2197 84.3168 39.8561 86.7291 39.8561C87.6758 39.8819 88.6038 39.5895 89.3647 39.0256C90.1256 38.4616 90.6753 37.6588 90.9259 36.7455L93.1195 37.4508C92.7409 38.844 91.8986 40.0665 90.7318 40.9167C89.5649 41.7668 88.1431 42.1938 86.7009 42.1273C84.8482 42.1613 83.0577 41.4582 81.7232 40.1726C80.3886 38.887 79.6192 37.1241 79.584 35.2713C79.5769 35.1021 79.584 34.9257 79.591 34.7494Z" fill="#375BD2"/>
<path d="M97.4717 41.8029H95.1582V27.3716H97.4717V33.0143C97.8076 32.616 98.23 32.2996 98.7067 32.0893C99.1835 31.8791 99.7019 31.7805 100.223 31.8011C102.614 31.8011 103.749 33.5151 103.749 35.6523V41.8029H101.52V36.0614C101.587 35.572 101.459 35.0759 101.163 34.6801C100.868 34.2842 100.429 34.0204 99.9404 33.9454C99.8021 33.9312 99.6626 33.9312 99.5243 33.9454C98.9893 33.9454 98.4762 34.1579 98.0978 34.5362C97.7195 34.9145 97.507 35.4276 97.507 35.9627C97.5035 36.0214 97.5035 36.0803 97.507 36.139L97.4717 41.8029Z" fill="#375BD2"/>
<path d="M108.94 36.2452L111.423 35.8573C111.988 35.7867 112.129 35.4975 112.129 35.1519C112.129 34.3337 111.578 33.6778 110.295 33.6778C109.81 33.6386 109.329 33.7921 108.957 34.105C108.584 34.418 108.35 34.8651 108.306 35.3494V35.4552L106.19 34.9826C106.366 33.3039 107.889 31.8086 110.274 31.8086C113.264 31.8086 114.4 33.5014 114.4 35.4764V40.2939C114.397 40.8159 114.437 41.3372 114.52 41.8527H112.404C112.327 41.4435 112.297 41.0272 112.312 40.6113C111.991 41.1056 111.546 41.507 111.021 41.7756C110.496 42.0442 109.91 42.1705 109.321 42.1419C108.517 42.2083 107.719 41.953 107.103 41.432C106.487 40.911 106.103 40.1669 106.034 39.3628C106.034 39.3134 106.034 39.2641 106.034 39.2218C105.999 37.4372 107.276 36.478 108.94 36.2452ZM112.143 37.804V37.3596L109.61 37.7405C109.267 37.7514 108.941 37.8948 108.7 38.1406C108.459 38.3864 108.323 38.7156 108.32 39.0595C108.322 39.2299 108.359 39.3981 108.427 39.5542C108.496 39.7103 108.595 39.8512 108.718 39.9688C108.842 40.0863 108.987 40.1781 109.146 40.2387C109.306 40.2994 109.475 40.3277 109.646 40.3221H109.752C110.04 40.3523 110.332 40.3251 110.61 40.242C110.888 40.159 111.147 40.0217 111.372 39.8381C111.597 39.6546 111.783 39.4283 111.921 39.1724C112.058 38.9165 112.143 38.636 112.171 38.3471C112.181 38.1653 112.169 37.983 112.136 37.804H112.143Z" fill="#375BD2"/>
<path d="M118.335 27.174C118.534 27.1712 118.732 27.2077 118.916 27.2815C119.101 27.3552 119.269 27.4647 119.411 27.6036C119.554 27.7426 119.667 27.9082 119.745 28.0911C119.823 28.274 119.864 28.4705 119.866 28.6693C119.866 28.967 119.778 29.258 119.613 29.5057C119.448 29.7534 119.214 29.9469 118.939 30.0617C118.664 30.1766 118.362 30.2077 118.07 30.1511C117.778 30.0946 117.509 29.9529 117.297 29.7439C117.085 29.5349 116.939 29.268 116.879 28.9766C116.818 28.6852 116.845 28.3824 116.956 28.1062C117.067 27.8301 117.257 27.5929 117.503 27.4245C117.748 27.2561 118.038 27.1641 118.335 27.1599V27.174ZM117.207 41.8452V32.0973H119.52V41.8028L117.207 41.8452Z" fill="#375BD2"/>
<path d="M124.789 41.803H122.483V32.0975H124.733V33.3882C125.026 32.8926 125.448 32.485 125.953 32.2083C126.458 31.9315 127.028 31.7958 127.604 31.8153C129.974 31.8153 131.13 33.5293 131.13 35.6665V41.803H128.824V36.0615C128.824 34.8695 128.281 33.9031 126.828 33.9031C126.559 33.905 126.294 33.9597 126.046 34.0642C125.799 34.1687 125.574 34.321 125.386 34.5122C125.197 34.7035 125.048 34.93 124.947 35.1789C124.846 35.4278 124.795 35.6941 124.796 35.9627C124.796 36.0403 124.796 36.1179 124.796 36.1955L124.789 41.803Z" fill="#375BD2"/>
<path d="M133.924 41.8029V27.3716H136.237V41.8029H133.924Z" fill="#375BD2"/>
<path d="M140.363 27.1738C140.661 27.1725 140.952 27.2596 141.2 27.4241C141.448 27.5886 141.642 27.8232 141.757 28.098C141.871 28.3728 141.902 28.6755 141.844 28.9676C141.786 29.2597 141.643 29.528 141.432 29.7386C141.222 29.9491 140.954 30.0923 140.661 30.1501C140.369 30.2078 140.067 30.1775 139.792 30.0629C139.517 29.9483 139.282 29.7546 139.118 29.5065C138.953 29.2583 138.866 28.9669 138.868 28.6692C138.871 28.2737 139.03 27.8955 139.31 27.6159C139.589 27.3362 139.968 27.1775 140.363 27.1738ZM139.227 41.845V32.0971H141.52V41.8027L139.227 41.845Z" fill="#375BD2"/>
<path d="M146.824 41.8028H144.511V32.0973H146.761V33.3881C147.055 32.893 147.476 32.4858 147.981 32.2091C148.486 31.9325 149.056 31.7964 149.632 31.8152C152.001 31.8152 153.158 33.5292 153.158 35.6664V41.8028H150.845V36.0614C150.911 35.5719 150.783 35.0758 150.488 34.68C150.192 34.2842 149.753 34.0203 149.265 33.9453C149.124 33.9312 148.982 33.9312 148.842 33.9453C148.303 33.9509 147.788 34.1689 147.409 34.5519C147.03 34.9349 146.817 35.452 146.817 35.9908C146.81 36.073 146.81 36.1556 146.817 36.2377L146.824 41.8028Z" fill="#375BD2"/>
<path d="M161.051 36.1954L165.121 41.8382H162.3L159.479 37.8389L158.287 39.0944V41.8029H155.994V27.3716H158.287V36.0191L162.011 32.0974H165.079L161.051 36.1954Z" fill="#375BD2"/>
<path d="M52.2026 23.4641L62.2044 29.2056V40.745L52.2308 46.5218L42.2361 40.7944V29.262L52.2026 23.4641ZM52.2026 15L48.5348 17.116L38.5472 22.9139L34.8794 25.03V45.0406L38.5472 47.1566L48.5489 52.8981L52.2167 55.0141L55.8845 52.8981L65.851 47.1143L69.5188 44.9982V24.9594L65.851 22.8434L55.8563 17.116L52.1885 15H52.2026Z" fill="#375BD2"/>
</g>
<defs>
<clipPath id="clip0">
<rect width="130.242" height="40" fill="white" transform="translate(34.8794 15)"/>
</clipPath>
</defs>
</svg>
