<svg width="200" height="70" viewBox="0 0 200 70" fill="none" xmlns="http://www.w3.org/2000/svg">
<rect width="200" height="70" fill="#D1E4FB" fill-opacity="0.2"/>
<g clip-path="url(#clip0)">
<path d="M42.6125 22.6577C35.8371 22.6577 30.3447 28.1446 30.3447 34.9133C30.3447 41.682 35.8371 47.1689 42.6125 47.1689C49.388 47.1689 54.8804 41.682 54.8804 34.9133C54.8804 28.1447 49.3878 22.6577 42.6125 22.6577ZM47.6577 40.032L42.5318 42.9935V42.9945H42.5297L37.4006 40.032V29.784L37.4059 29.7872L42.5276 26.832L45.8149 28.6645H45.816V33.2909L44.2164 32.3731V29.5866L42.5297 28.6264L38.9991 30.6657V39.1609L42.5297 41.2002L46.0603 39.1672L46.0772 35.6762L41.0607 32.7688L42.672 31.9221L47.6705 34.8337L47.6577 40.033V40.032ZM43.4963 34.5801L44.7315 35.29L41.0607 37.3782V33.1678L42.3502 33.9275V35.1913L43.4973 34.5801H43.4963Z" fill="#516FFA"/>
<path d="M62.7021 28.2517H67.3926C67.8458 28.2517 68.2933 28.3054 68.7352 28.413C69.177 28.5205 69.5707 28.696 69.9162 28.9393C70.2618 29.1826 70.5422 29.4967 70.7575 29.8815C70.9727 30.2664 71.0804 30.7304 71.0804 31.2737C71.0804 31.9528 70.8878 32.513 70.5026 32.9544C70.1174 33.3959 69.6132 33.7128 68.9901 33.9052V33.9391C69.3639 33.9844 69.7123 34.0891 70.0352 34.2532C70.3581 34.4173 70.6329 34.6267 70.8594 34.8814C71.086 35.1361 71.2645 35.4303 71.3948 35.7642C71.5251 36.0981 71.5902 36.4575 71.5902 36.8423C71.5902 37.4988 71.4599 38.0448 71.1993 38.4806C70.9388 38.9163 70.596 39.2672 70.1712 39.5332C69.7463 39.7992 69.2591 39.9888 68.7097 40.1019C68.1602 40.2151 67.6022 40.2717 67.0357 40.2717H62.7021V28.2517ZM64.8434 33.1412H66.7978C67.5115 33.1412 68.0469 33.0026 68.4038 32.7252C68.7606 32.448 68.9391 32.0829 68.9391 31.6302C68.9391 31.1096 68.755 30.7219 68.3868 30.4672C68.0185 30.2126 67.4266 30.0853 66.6109 30.0853H64.8434V33.1412ZM64.8434 38.4382H66.8148C67.0867 38.4382 67.3784 38.4212 67.69 38.3872C68.0015 38.3533 68.2876 38.2741 68.5482 38.1495C68.8088 38.025 69.0241 37.8468 69.194 37.6147C69.3639 37.3827 69.4489 37.0686 69.4489 36.6725C69.4489 36.0387 69.2421 35.5973 68.8286 35.3483C68.4151 35.0993 67.7721 34.9748 66.8997 34.9748H64.8434V38.4382ZM78.371 39.1512H78.32C78.0254 39.6153 77.6515 39.952 77.1983 40.1614C76.7451 40.3707 76.2466 40.4755 75.7028 40.4755C75.3289 40.4755 74.9636 40.4245 74.6067 40.3227C74.2498 40.2208 73.9326 40.068 73.655 39.8642C73.3774 39.6605 73.1537 39.4058 72.9838 39.1003C72.8138 38.7947 72.7288 38.4382 72.7288 38.0307C72.7288 37.5893 72.8082 37.2129 72.9668 36.9017C73.1254 36.5904 73.3378 36.3301 73.6041 36.1207C73.8703 35.9114 74.179 35.7444 74.5302 35.6199C74.8815 35.4954 75.2468 35.402 75.6263 35.3398C76.0059 35.2775 76.3883 35.2379 76.7735 35.2209C77.1587 35.204 77.5212 35.1955 77.8611 35.1955H78.371V34.9748C78.371 34.4654 78.1954 34.0834 77.8441 33.8288C77.4929 33.5741 77.0454 33.4468 76.5016 33.4468C76.071 33.4468 75.6689 33.5232 75.295 33.676C74.9211 33.8288 74.5982 34.0354 74.3263 34.2956L73.2556 33.2261C73.7088 32.762 74.2385 32.4281 74.8446 32.2244C75.4507 32.0207 76.0767 31.9188 76.7225 31.9188C77.3003 31.9188 77.7875 31.9839 78.184 32.1141C78.5806 32.2442 78.9091 32.4111 79.1697 32.6149C79.4303 32.8186 79.6314 33.0535 79.773 33.3195C79.9146 33.5854 80.0166 33.8542 80.0789 34.1259C80.1412 34.3975 80.178 34.6607 80.1894 34.9153C80.2007 35.17 80.2063 35.3935 80.2063 35.5859V40.2717H78.371V39.1512ZM78.252 36.6216H77.8271C77.5439 36.6216 77.2266 36.6329 76.8754 36.6555C76.5242 36.6782 76.1929 36.7319 75.8813 36.8168C75.5697 36.9017 75.3063 37.0262 75.091 37.1903C74.8758 37.3544 74.7682 37.5836 74.7682 37.8779C74.7682 38.0703 74.8106 38.2316 74.8956 38.3618C74.9806 38.4919 75.091 38.6022 75.227 38.6928C75.363 38.7833 75.5159 38.8484 75.6859 38.8881C75.8558 38.9276 76.0257 38.9475 76.1957 38.9475C76.8981 38.9475 77.4165 38.7805 77.7507 38.4466C78.0849 38.1128 78.252 37.6572 78.252 37.08V36.6216ZM82.1437 32.1225H84.0809V33.4298H84.115C84.3079 33.0223 84.6021 32.6687 84.999 32.3687C85.3954 32.0688 85.9334 31.9188 86.6135 31.9188C87.1572 31.9188 87.6186 32.0093 87.9983 32.1904C88.3779 32.3716 88.6867 32.6092 88.9242 32.9035C89.1623 33.1978 89.3322 33.5373 89.4344 33.9221C89.5362 34.307 89.587 34.7088 89.587 35.1276V40.2717H87.5478V36.1462C87.5478 35.9198 87.5368 35.668 87.5138 35.3907C87.4912 35.1134 87.432 34.8531 87.3355 34.6097C87.239 34.3664 87.089 34.1627 86.8851 33.9985C86.6811 33.8344 86.4037 33.7524 86.0524 33.7524C85.7126 33.7524 85.4263 33.8089 85.1941 33.9221C84.9618 34.0354 84.7693 34.1881 84.6162 34.3805C84.4637 34.573 84.353 34.7937 84.2849 35.0427C84.2172 35.2917 84.1831 35.552 84.1831 35.8236V40.2717H82.1437V32.1225ZM98.1013 39.0493H98.0672C97.7731 39.5473 97.3762 39.9095 96.878 40.1359C96.3794 40.3623 95.8414 40.4755 95.2636 40.4755C94.6291 40.4755 94.0654 40.3651 93.5726 40.1444C93.0797 39.9237 92.6576 39.6209 92.3063 39.2361C91.955 38.8512 91.6891 38.3985 91.5077 37.8779C91.3263 37.3572 91.2356 36.797 91.2356 36.1971C91.2356 35.5973 91.332 35.037 91.5245 34.5163C91.7174 33.9957 91.9864 33.543 92.332 33.1582C92.6775 32.7734 93.0938 32.4706 93.581 32.2499C94.0681 32.0292 94.6008 31.9188 95.1786 31.9188C95.5635 31.9188 95.9033 31.9584 96.198 32.0377C96.4926 32.1169 96.7532 32.2188 96.9798 32.3432C97.2063 32.4678 97.3992 32.6007 97.5576 32.7422C97.7165 32.8837 97.8465 33.0223 97.9482 33.1582H97.9996V27.4368H100.039V40.2717H98.1013V39.0493ZM93.2753 36.1971C93.2753 36.514 93.3287 36.8196 93.4362 37.1139C93.5443 37.4082 93.7026 37.6685 93.9123 37.8948C94.1221 38.1213 94.3738 38.3023 94.6684 38.4382C94.9631 38.574 95.2971 38.6419 95.671 38.6419C96.0448 38.6419 96.3794 38.574 96.6741 38.4382C96.9682 38.3023 97.2204 38.1213 97.4302 37.8948C97.6399 37.6685 97.7983 37.4082 97.9058 37.1139C98.0138 36.8196 98.0672 36.514 98.0672 36.1971C98.0672 35.8802 98.0138 35.5746 97.9058 35.2804C97.7983 34.986 97.6399 34.7258 97.4302 34.4994C97.2204 34.273 96.9682 34.0919 96.6741 33.9561C96.3794 33.8203 96.0448 33.7524 95.671 33.7524C95.2971 33.7524 94.9631 33.8203 94.6684 33.9561C94.3738 34.0919 94.1221 34.273 93.9123 34.4994C93.7026 34.7258 93.5443 34.986 93.4362 35.2804C93.3287 35.5746 93.2753 35.8802 93.2753 36.1971ZM107.058 28.2517H111.102C111.68 28.2517 112.238 28.3083 112.776 28.4215C113.314 28.5347 113.787 28.7242 114.195 28.9902C114.603 29.2562 114.929 29.6127 115.172 30.0598C115.416 30.5069 115.538 31.0643 115.538 31.7321C115.538 32.4904 115.407 33.1015 115.147 33.5656C114.886 34.0297 114.535 34.389 114.093 34.6437C113.651 34.8984 113.138 35.0709 112.555 35.1615C111.972 35.252 111.363 35.2973 110.728 35.2973H109.199V40.2717H107.058V28.2517ZM110.491 33.4638C110.796 33.4638 111.113 33.4524 111.442 33.4298C111.77 33.4072 112.074 33.3392 112.351 33.2261C112.629 33.1129 112.855 32.9431 113.031 32.7167C113.207 32.4904 113.294 32.1735 113.294 31.766C113.294 31.3925 113.215 31.0954 113.057 30.8747C112.898 30.654 112.694 30.4842 112.445 30.3654C112.195 30.2465 111.918 30.1701 111.612 30.1362C111.306 30.1022 111.012 30.0853 110.728 30.0853H109.199V33.4638H110.491ZM116.999 32.1225H119.038V33.4128H119.072C119.299 32.9374 119.622 32.5696 120.041 32.3093C120.46 32.049 120.942 31.9188 121.486 31.9188C121.61 31.9188 121.732 31.9301 121.851 31.9528C121.97 31.9754 122.092 32.0037 122.216 32.0377V34.007C122.047 33.9618 121.879 33.925 121.715 33.8967C121.551 33.8684 121.39 33.8542 121.231 33.8542C120.755 33.8542 120.372 33.942 120.083 34.1174C119.795 34.2928 119.574 34.4937 119.421 34.7201C119.268 34.9465 119.166 35.1728 119.115 35.3992C119.064 35.6255 119.038 35.7953 119.038 35.9085V40.2717H116.999V32.1225ZM122.641 36.1971C122.641 35.552 122.758 34.9663 122.99 34.4399C123.222 33.9137 123.536 33.4638 123.933 33.0903C124.33 32.7167 124.799 32.4281 125.344 32.2244C125.887 32.0207 126.465 31.9188 127.077 31.9188C127.689 31.9188 128.266 32.0207 128.81 32.2244C129.354 32.4281 129.824 32.7167 130.221 33.0903C130.618 33.4638 130.932 33.9137 131.164 34.4399C131.396 34.9663 131.513 35.552 131.513 36.1971C131.513 36.8423 131.396 37.428 131.164 37.9543C130.932 38.4806 130.618 38.9305 130.221 39.304C129.824 39.6775 129.354 39.9661 128.81 40.1699C128.266 40.3736 127.689 40.4755 127.077 40.4755C126.465 40.4755 125.887 40.3736 125.344 40.1699C124.799 39.9661 124.33 39.6775 123.933 39.304C123.536 38.9305 123.222 38.4806 122.99 37.9543C122.758 37.428 122.641 36.8423 122.641 36.1971ZM124.681 36.1971C124.681 36.514 124.734 36.8196 124.842 37.1139C124.95 37.4082 125.108 37.6685 125.318 37.8948C125.528 38.1213 125.779 38.3023 126.074 38.4382C126.369 38.574 126.703 38.6419 127.077 38.6419C127.45 38.6419 127.785 38.574 128.08 38.4382C128.374 38.3023 128.626 38.1213 128.836 37.8948C129.046 37.6685 129.204 37.4082 129.311 37.1139C129.419 36.8196 129.473 36.514 129.473 36.1971C129.473 35.8802 129.419 35.5746 129.311 35.2804C129.204 34.986 129.046 34.7258 128.836 34.4994C128.626 34.273 128.374 34.0919 128.08 33.9561C127.785 33.8203 127.45 33.7524 127.077 33.7524C126.703 33.7524 126.369 33.8203 126.074 33.9561C125.779 34.0919 125.528 34.273 125.318 34.4994C125.108 34.7258 124.95 34.986 124.842 35.2804C124.734 35.5746 124.681 35.8802 124.681 36.1971ZM132.209 33.8542V32.1225H133.892V29.7627H135.931V32.1225H138.174V33.8542H135.931V37.4195C135.931 37.8269 136.007 38.1495 136.16 38.3872C136.313 38.6249 136.617 38.7438 137.07 38.7438C137.251 38.7438 137.449 38.7239 137.664 38.6843C137.88 38.6447 138.05 38.5796 138.174 38.4891V40.2038C137.959 40.3057 137.696 40.3764 137.384 40.416C137.072 40.4556 136.797 40.4755 136.56 40.4755C136.016 40.4755 135.571 40.416 135.225 40.2972C134.88 40.1783 134.608 39.9973 134.41 39.7539C134.211 39.5106 134.076 39.2078 134.002 38.8456C133.928 38.4834 133.892 38.0646 133.892 37.5893V33.8542H132.209ZM139.109 36.1971C139.109 35.552 139.225 34.9663 139.457 34.4399C139.69 33.9137 140.004 33.4638 140.4 33.0903C140.797 32.7167 141.267 32.4281 141.811 32.2244C142.355 32.0207 142.933 31.9188 143.544 31.9188C144.156 31.9188 144.734 32.0207 145.278 32.2244C145.821 32.4281 146.292 32.7167 146.688 33.0903C147.085 33.4638 147.399 33.9137 147.631 34.4399C147.864 34.9663 147.98 35.552 147.98 36.1971C147.98 36.8423 147.864 37.428 147.631 37.9543C147.399 38.4806 147.085 38.9305 146.688 39.304C146.292 39.6775 145.821 39.9661 145.278 40.1699C144.734 40.3736 144.156 40.4755 143.544 40.4755C142.933 40.4755 142.355 40.3736 141.811 40.1699C141.267 39.9661 140.797 39.6775 140.4 39.304C140.004 38.9305 139.69 38.4806 139.457 37.9543C139.225 37.428 139.109 36.8423 139.109 36.1971ZM141.148 36.1971C141.148 36.514 141.202 36.8196 141.309 37.1139C141.417 37.4082 141.576 37.6685 141.786 37.8948C141.995 38.1213 142.247 38.3023 142.542 38.4382C142.836 38.574 143.17 38.6419 143.544 38.6419C143.918 38.6419 144.253 38.574 144.547 38.4382C144.841 38.3023 145.094 38.1213 145.303 37.8948C145.513 37.6685 145.671 37.4082 145.779 37.1139C145.887 36.8196 145.94 36.514 145.94 36.1971C145.94 35.8802 145.887 35.5746 145.779 35.2804C145.671 34.986 145.513 34.7258 145.303 34.4994C145.094 34.273 144.841 34.0919 144.547 33.9561C144.253 33.8203 143.918 33.7524 143.544 33.7524C143.17 33.7524 142.836 33.8203 142.542 33.9561C142.247 34.0919 141.995 34.273 141.786 34.4994C141.576 34.7258 141.417 34.986 141.309 35.2804C141.202 35.5746 141.148 35.8802 141.148 36.1971ZM155.202 34.5673C154.964 34.3183 154.715 34.1202 154.455 33.9731C154.194 33.8259 153.928 33.7524 153.656 33.7524C153.282 33.7524 152.948 33.8203 152.654 33.9561C152.359 34.0919 152.107 34.273 151.897 34.4994C151.688 34.7258 151.529 34.986 151.421 35.2804C151.313 35.5746 151.26 35.8802 151.26 36.1971C151.26 36.514 151.313 36.8196 151.421 37.1139C151.529 37.4082 151.688 37.6685 151.897 37.8948C152.107 38.1213 152.359 38.3023 152.654 38.4382C152.948 38.574 153.282 38.6419 153.656 38.6419C153.973 38.6419 154.268 38.5768 154.54 38.4466C154.812 38.3165 155.044 38.1269 155.237 37.8779L156.596 39.3379C156.392 39.5417 156.157 39.7171 155.891 39.8642C155.625 40.0114 155.356 40.1302 155.083 40.2208C154.812 40.3113 154.551 40.3764 154.302 40.416C154.053 40.4556 153.837 40.4755 153.656 40.4755C153.044 40.4755 152.466 40.3736 151.923 40.1699C151.379 39.9661 150.909 39.6775 150.512 39.304C150.116 38.9305 149.801 38.4806 149.569 37.9543C149.337 37.428 149.221 36.8423 149.221 36.1971C149.221 35.552 149.337 34.9663 149.569 34.4399C149.801 33.9137 150.116 33.4638 150.512 33.0903C150.909 32.7167 151.379 32.4281 151.923 32.2244C152.466 32.0207 153.044 31.9188 153.656 31.9188C154.177 31.9188 154.701 32.0178 155.228 32.2159C155.755 32.414 156.217 32.7281 156.613 33.1582L155.202 34.5673ZM157.157 36.1971C157.157 35.552 157.273 34.9663 157.505 34.4399C157.738 33.9137 158.052 33.4638 158.449 33.0903C158.845 32.7167 159.315 32.4281 159.859 32.2244C160.403 32.0207 160.981 31.9188 161.593 31.9188C162.204 31.9188 162.782 32.0207 163.326 32.2244C163.87 32.4281 164.34 32.7167 164.737 33.0903C165.133 33.4638 165.447 33.9137 165.679 34.4399C165.912 34.9663 166.028 35.552 166.028 36.1971C166.028 36.8423 165.912 37.428 165.679 37.9543C165.447 38.4806 165.133 38.9305 164.737 39.304C164.34 39.6775 163.87 39.9661 163.326 40.1699C162.782 40.3736 162.204 40.4755 161.593 40.4755C160.981 40.4755 160.403 40.3736 159.859 40.1699C159.315 39.9661 158.845 39.6775 158.449 39.304C158.052 38.9305 157.738 38.4806 157.505 37.9543C157.273 37.428 157.157 36.8423 157.157 36.1971ZM159.196 36.1971C159.196 36.514 159.25 36.8196 159.358 37.1139C159.465 37.4082 159.624 37.6685 159.833 37.8948C160.043 38.1213 160.295 38.3023 160.59 38.4382C160.884 38.574 161.219 38.6419 161.593 38.6419C161.966 38.6419 162.3 38.574 162.595 38.4382C162.89 38.3023 163.142 38.1213 163.351 37.8948C163.561 37.6685 163.719 37.4082 163.827 37.1139C163.935 36.8196 163.988 36.514 163.988 36.1971C163.988 35.8802 163.935 35.5746 163.827 35.2804C163.719 34.986 163.561 34.7258 163.351 34.4994C163.142 34.273 162.89 34.0919 162.595 33.9561C162.3 33.8203 161.966 33.7524 161.593 33.7524C161.219 33.7524 160.884 33.8203 160.59 33.9561C160.295 34.0919 160.043 34.273 159.833 34.4994C159.624 34.7258 159.465 34.986 159.358 35.2804C159.25 35.5746 159.196 35.8802 159.196 36.1971ZM167.71 27.4368H169.75V40.2717H167.71V27.4368Z" fill="#2A304E"/>
</g>
<defs>
<clipPath id="clip0">
<rect width="140" height="25.1685" fill="white" transform="translate(30 22.4158)"/>
</clipPath>
</defs>
</svg>
