<svg width="200" height="70" viewBox="0 0 200 70" fill="none" xmlns="http://www.w3.org/2000/svg">
<rect width="200" height="70" fill="#D1E4FB" fill-opacity="0.2"/>
<path d="M85.8249 49.1506L87.2997 46.9141C88.9009 47.9893 90.3756 48.5485 91.6819 48.5485C92.9038 48.5485 93.873 48.3334 94.5893 47.9033C95.3056 47.4732 95.6427 46.9141 95.6427 46.2689C95.6427 44.9786 94.7579 44.3764 92.946 44.3764C92.651 44.3764 92.0611 44.4624 91.2605 44.5915C90.4599 44.7635 89.8279 44.8065 89.3644 44.8065C87.1733 44.8065 86.0777 43.9463 86.0777 42.2689C86.0777 41.7528 86.3305 41.2797 86.8362 40.8495C87.3418 40.4194 87.9739 40.1184 88.7323 39.9463C86.5833 38.9141 85.4878 37.1076 85.4878 34.527C85.4878 32.8926 86.0356 31.5162 87.1733 30.3979C88.3109 29.3227 89.6593 28.7635 91.3448 28.7635C92.8617 28.7635 94.0415 29.0646 94.8843 29.7098L96.2326 28.0323L98.0024 29.7528L96.359 31.0001C97.0754 31.9463 97.4125 33.1506 97.4125 34.656C97.4125 36.2474 96.9068 37.5807 95.9798 38.656C95.0107 39.7313 93.7466 40.3334 92.1875 40.5055L89.9121 40.7205C89.6593 40.7635 89.2801 40.8495 88.8166 41.0216C88.3531 41.1936 88.1424 41.4517 88.1424 41.7528C88.1424 42.1399 88.6059 42.3549 89.5329 42.3549C89.9543 42.3549 90.5863 42.2689 91.4712 42.1399C92.3561 42.0108 92.9881 41.9248 93.4095 41.9248C94.9264 41.9248 96.1062 42.3119 96.949 43.0431C97.7917 43.7743 98.2131 44.8065 98.2131 46.1399C98.2131 47.6022 97.581 48.7635 96.3169 49.6667C95.0528 50.57 93.4516 51.0001 91.5133 51.0001C90.5021 51.0001 89.4486 50.828 88.3531 50.4409C87.3839 50.0969 86.4991 49.6667 85.8249 49.1506ZM91.6397 31.0431C90.7127 31.0431 89.9121 31.3872 89.3222 32.0754C88.7323 32.7635 88.4374 33.5807 88.4374 34.57C88.4374 35.6452 88.7323 36.5915 89.3222 37.2797C89.9121 38.0108 90.6706 38.3549 91.6819 38.3549C92.651 38.3549 93.4095 38.0108 93.9573 37.3227C94.505 36.6345 94.7579 35.6883 94.7579 34.57C94.7579 33.5807 94.4629 32.7635 93.873 32.0754C93.2409 31.3872 92.5246 31.0431 91.6397 31.0431Z" fill="#404040"/>
<path d="M100.699 40.3763V22.6559H103.438V39.9032C103.438 40.7634 103.69 41.4086 104.154 41.8817C104.617 42.3548 105.249 42.6129 106.008 42.6129V45.1075C102.468 45.1075 100.699 43.5591 100.699 40.3763Z" fill="#404040"/>
<path d="M106.809 36.9354C106.809 34.5268 107.441 32.5483 108.747 31.043C110.053 29.5376 111.696 28.8064 113.803 28.8064C115.994 28.8064 117.722 29.5376 118.944 30.9569C120.166 32.3763 120.756 34.3978 120.756 36.9354C120.756 39.4731 120.124 41.4515 118.902 42.9139C117.638 44.3763 115.952 45.1075 113.803 45.1075C111.612 45.1075 109.885 44.3763 108.663 42.8709C107.399 41.4515 106.809 39.43 106.809 36.9354ZM109.674 36.9354C109.674 40.8924 111.022 42.8709 113.761 42.8709C115.025 42.8709 116.037 42.3548 116.753 41.2795C117.469 40.2042 117.848 38.7849 117.848 36.9354C117.848 33.0645 116.5 31.086 113.761 31.086C112.497 31.086 111.528 31.6021 110.769 32.6344C110.053 33.6666 109.674 35.129 109.674 36.9354Z" fill="#404040"/>
<path d="M125.939 43.6881L124.969 45.1075H123.621V22.6559H126.36V30.2688C126.613 29.9247 127.118 29.5806 127.835 29.2795C128.551 28.9785 129.267 28.8064 129.942 28.8064C132.048 28.8064 133.776 29.5376 135.082 31.043C136.388 32.5483 137.063 34.3978 137.063 36.6774C137.063 39.301 136.388 41.3655 135.082 42.8709C133.776 44.3763 132.006 45.1075 129.731 45.1075C129.015 45.1075 128.298 44.9784 127.582 44.6774C126.823 44.4193 126.318 44.0752 125.939 43.6881ZM126.36 32.3763V41.4516C126.36 41.6236 126.697 41.8817 127.371 42.2258C128.045 42.5698 128.551 42.7419 128.93 42.7419C130.784 42.7419 132.133 42.2688 132.933 41.3655C133.734 40.4623 134.155 38.9139 134.155 36.7634C134.155 35 133.692 33.5806 132.765 32.5914C131.838 31.6021 130.574 31.086 128.972 31.086C128.635 31.086 128.172 31.215 127.582 31.5161C126.908 31.9032 126.529 32.1613 126.36 32.3763Z" fill="#404040"/>
<path d="M152.99 37.2365H141.866C141.866 39.086 142.372 40.5053 143.341 41.4946C144.226 42.3548 145.322 42.7849 146.712 42.7849C148.271 42.7849 149.577 42.3118 150.631 41.4085L151.768 43.43C151.347 43.8601 150.715 44.2472 149.83 44.5483C148.735 44.9784 147.513 45.1505 146.164 45.1505C144.226 45.1505 142.583 44.4623 141.234 43.129C139.717 41.6666 138.959 39.6451 138.959 37.1505C138.959 34.5698 139.717 32.4623 141.276 30.9139C142.667 29.5376 144.31 28.8064 146.164 28.8064C148.355 28.8064 150.083 29.4516 151.305 30.6989C152.527 31.9032 153.117 33.5376 153.117 35.5161C153.201 36.1612 153.117 36.7204 152.99 37.2365ZM146.375 31.172C145.153 31.172 144.142 31.5591 143.299 32.3763C142.498 33.1505 142.077 34.0967 141.951 35.215H150.504C150.504 34.0967 150.167 33.1505 149.451 32.4193C148.693 31.5591 147.681 31.172 146.375 31.172Z" fill="#404040"/>
<path d="M76.7654 30.9139H69.1387H62.0176V37.8817H69.2229C67.9588 40.6774 65.22 42.6129 62.0176 42.6129V49.9677C70.4028 49.9677 77.1868 43.043 77.1868 34.4838V30.9139H76.7654Z" fill="#404040"/>
<path d="M62.0178 18.9999C53.6326 18.9999 46.8486 25.9246 46.8486 34.4407H54.054C54.054 29.9676 57.6356 26.3547 62.0178 26.3547V18.9999Z" fill="#404040"/>
</svg>
