<svg width="200" height="70" viewBox="0 0 200 70" fill="none" xmlns="http://www.w3.org/2000/svg">
<rect width="200" height="70" fill="#D1E4FB" fill-opacity="0.2"/>
<path d="M153.444 21.3L153.478 21.2725C153.538 21.2099 153.584 21.1361 153.615 21.0554C153.645 20.9747 153.66 20.8887 153.657 20.8025C153.659 20.6521 153.614 20.5048 153.53 20.3804C153.511 20.3435 153.487 20.3099 153.458 20.2809L153.423 20.2466C153.24 20.1248 153.022 20.0669 152.802 20.0819H151.89V22.4185H152.425V21.4887H152.627L153.183 22.4082H153.605L153.698 22.3842V22.3533L153.739 22.3156L153.176 21.4441C153.274 21.4128 153.364 21.364 153.444 21.3ZM153.063 20.9569C152.956 21.0066 152.838 21.0279 152.72 21.0186H152.439V20.552H152.782C152.886 20.5502 152.989 20.575 153.08 20.624C153.128 20.624 153.142 20.7098 153.142 20.7681C153.144 20.8332 153.122 20.8967 153.08 20.9466L153.063 20.9569Z" fill="#00A651"/>
<path d="M154.332 19.7014C154.134 19.5025 153.898 19.3456 153.638 19.2401C153.378 19.1345 153.1 19.0826 152.819 19.0872C152.536 19.0829 152.255 19.1346 151.993 19.2395C151.73 19.3443 151.491 19.5001 151.289 19.6979C151.082 19.8962 150.92 20.1353 150.811 20.4C150.702 20.6646 150.65 20.9491 150.657 21.2351C150.65 21.5219 150.703 21.8071 150.812 22.0724C150.921 22.3377 151.085 22.5773 151.292 22.7756C151.699 23.1748 152.247 23.3984 152.817 23.3984C153.388 23.3984 153.935 23.1748 154.342 22.7756C154.547 22.5768 154.709 22.3374 154.816 22.0728C154.924 21.8081 154.975 21.524 154.967 21.2385C154.975 20.9521 154.923 20.6671 154.813 20.4022C154.704 20.1374 154.54 19.8986 154.332 19.7014ZM152.836 22.9918C152.6 22.9932 152.366 22.9453 152.15 22.8511C152.071 22.8179 151.995 22.7778 151.924 22.731C151.648 22.56 151.426 22.3162 151.281 22.0265C151.136 21.7369 151.074 21.4128 151.103 21.0901C151.131 20.7674 151.248 20.4589 151.44 20.1986C151.633 19.9383 151.894 19.7365 152.195 19.6156C152.396 19.5346 152.612 19.4926 152.829 19.4921C153.293 19.4921 153.739 19.6764 154.067 20.0046C154.395 20.3328 154.579 20.7778 154.579 21.2419C154.579 21.706 154.395 22.1511 154.067 22.4793C153.739 22.8074 153.293 22.9918 152.829 22.9918H152.836Z" fill="#00A651"/>
<path d="M100.821 36.5857C100.834 36.6195 100.852 36.6509 100.876 36.6784H100.896L100.914 36.699L100.965 36.7367C101.008 36.7603 101.054 36.7766 101.102 36.7847C101.14 36.7883 101.178 36.7883 101.216 36.7847H112.116C112.22 36.792 112.324 36.792 112.428 36.7847C112.512 36.7835 112.594 36.7559 112.662 36.7058C112.7 36.6789 112.736 36.6478 112.768 36.6132C112.809 36.5385 112.829 36.4545 112.826 36.3696C112.825 36.2215 112.77 36.079 112.672 35.9681L112.25 35.402C112.241 35.385 112.227 35.3711 112.21 35.3619C112.193 35.3528 112.173 35.3488 112.154 35.3505H101.466C101.448 35.3485 101.43 35.3512 101.414 35.3584C101.398 35.3657 101.384 35.3772 101.373 35.3917L101.336 35.4397L100.927 35.9887C100.86 36.071 100.815 36.169 100.797 36.2734C100.778 36.3779 100.786 36.4854 100.821 36.5857Z" fill="#00A651"/>
<path d="M105.518 30.0666H108.085H108.112C108.13 30.0632 108.147 30.0545 108.161 30.0417C108.174 30.029 108.183 30.0126 108.188 29.9946C108.194 29.9825 108.198 29.9689 108.198 29.9551C108.198 29.9413 108.194 29.9278 108.188 29.9157L107.412 28.8863C107.349 28.8043 107.27 28.7367 107.179 28.6882C107.087 28.6396 106.987 28.6113 106.884 28.605H106.836H106.805C106.708 28.6083 106.613 28.6292 106.524 28.6667C106.402 28.7108 106.296 28.7895 106.218 28.8932L105.453 29.9225C105.438 29.944 105.433 29.9704 105.437 29.9961C105.442 30.0217 105.456 30.0446 105.477 30.0598C105.49 30.0642 105.504 30.0665 105.518 30.0666Z" fill="#00A651"/>
<path d="M103.057 33.2404H110.441H110.462C110.481 33.2354 110.499 33.2245 110.511 33.2091C110.524 33.1937 110.532 33.1746 110.534 33.1546C110.54 33.1418 110.543 33.1277 110.543 33.1134C110.543 33.0991 110.54 33.085 110.534 33.0722L109.892 32.2213C109.877 32.2019 109.855 32.1886 109.83 32.1836H109.803H103.706C103.69 32.1836 103.674 32.1873 103.66 32.1945C103.645 32.2016 103.633 32.212 103.623 32.2248L102.985 33.086C102.976 33.1003 102.971 33.117 102.971 33.134C102.971 33.151 102.976 33.1677 102.985 33.182C102.991 33.1971 103.001 33.2103 103.014 33.2205C103.026 33.2307 103.041 33.2375 103.057 33.2404Z" fill="#00A651"/>
<path d="M101.898 34.8327H101.918H111.597C111.61 34.8343 111.623 34.8343 111.635 34.8327C111.654 34.8274 111.67 34.8167 111.682 34.802C111.694 34.7874 111.702 34.7694 111.704 34.7504C111.712 34.7294 111.712 34.7062 111.704 34.6852L111.049 33.8412C111.036 33.825 111.02 33.813 111 33.8068C110.988 33.8033 110.975 33.8033 110.963 33.8068H102.557H102.522C102.501 33.8115 102.483 33.8237 102.471 33.8412L101.833 34.6955C101.827 34.7078 101.824 34.7213 101.824 34.735C101.824 34.7486 101.827 34.7621 101.833 34.7744C101.839 34.7882 101.848 34.8005 101.859 34.8106C101.87 34.8206 101.883 34.8282 101.898 34.8327Z" fill="#00A651"/>
<path d="M104.249 31.6381C104.264 31.6426 104.281 31.6426 104.297 31.6381H109.265H109.286C109.302 31.636 109.317 31.6299 109.33 31.6203C109.343 31.6108 109.354 31.598 109.361 31.5833C109.367 31.5685 109.37 31.5523 109.369 31.5361C109.368 31.5198 109.363 31.5042 109.354 31.4905L108.709 30.6327C108.694 30.6133 108.672 30.6 108.647 30.595H104.938C104.924 30.5898 104.908 30.5898 104.894 30.595C104.876 30.6011 104.861 30.6118 104.849 30.6259L104.207 31.4837C104.194 31.4976 104.187 31.516 104.187 31.5351C104.184 31.5567 104.189 31.5787 104.2 31.5974C104.211 31.6161 104.228 31.6305 104.249 31.6381Z" fill="#00A651"/>
<path d="M106.509 28.6429C106.599 28.6054 106.694 28.5844 106.791 28.5811C106.693 28.5779 106.596 28.5991 106.509 28.6429Z" fill="#00A651"/>
<path d="M113.643 36.586C113.705 36.6748 113.79 36.7463 113.887 36.7937C113.985 36.8411 114.093 36.8629 114.202 36.857H116.841C116.995 36.8631 117.146 36.8075 117.259 36.7026C117.309 36.6502 117.348 36.5883 117.373 36.5205C117.399 36.4526 117.41 36.3804 117.407 36.308L117.064 31.8476C117.06 31.6746 117.021 31.5042 116.949 31.3469C116.877 31.1896 116.773 31.0487 116.645 30.9329C116.516 30.8172 116.365 30.729 116.201 30.6739C116.037 30.6188 115.864 30.5978 115.691 30.6124H115.338C114.999 30.61 114.667 30.7079 114.384 30.8938C114.246 30.9822 114.131 31.1032 114.05 31.2462C113.97 31.3891 113.925 31.5497 113.921 31.7138L113.602 36.0061V36.0336V36.212C113.577 36.3379 113.591 36.4684 113.643 36.586Z" fill="#00A651"/>
<path d="M115.485 26.4505C115.177 26.4518 114.876 26.5446 114.62 26.7171C114.364 26.8896 114.165 27.1341 114.048 27.4197C113.931 27.7053 113.901 28.0191 113.962 28.3216C114.024 28.6241 114.173 28.9016 114.392 29.1191C114.611 29.3366 114.889 29.4844 115.192 29.5437C115.495 29.603 115.809 29.5712 116.094 29.4523C116.378 29.3334 116.622 29.1328 116.792 28.8757C116.963 28.6187 117.054 28.3168 117.053 28.0082C117.053 27.8029 117.012 27.5997 116.933 27.4102C116.854 27.2208 116.738 27.0488 116.593 26.9041C116.447 26.7594 116.274 26.6448 116.084 26.567C115.894 26.4892 115.691 26.4496 115.485 26.4505Z" fill="#FFF200"/>
<path d="M115.485 25.8569C115.059 25.8576 114.643 25.9847 114.289 26.222C113.935 26.4593 113.659 26.7963 113.497 27.1903C113.334 27.5842 113.292 28.0176 113.376 28.4354C113.46 28.8532 113.666 29.2369 113.968 29.5377C114.269 29.8386 114.654 30.0432 115.072 30.1257C115.49 30.2081 115.923 30.1648 116.316 30.0011C116.71 29.8374 117.046 29.5606 117.282 29.2059C117.518 28.8512 117.644 28.4344 117.643 28.0082C117.643 27.7253 117.587 27.4452 117.478 27.1839C117.369 26.9227 117.21 26.6854 117.01 26.4856C116.809 26.2858 116.572 26.1275 116.31 26.0196C116.049 25.9118 115.768 25.8565 115.485 25.8569ZM115.485 29.8233C115.127 29.8226 114.777 29.7159 114.48 29.5166C114.183 29.3172 113.951 29.0343 113.814 28.7034C113.678 28.3725 113.642 28.0085 113.712 27.6574C113.782 27.3063 113.955 26.9838 114.208 26.7307C114.461 26.4775 114.783 26.305 115.134 26.235C115.486 26.165 115.85 26.2006 116.18 26.3373C116.511 26.474 116.794 26.7057 116.994 27.003C117.193 27.3004 117.3 27.6502 117.3 28.0082C117.3 28.4896 117.109 28.9513 116.769 29.2917C116.428 29.6321 115.967 29.8233 115.485 29.8233Z" fill="#00A651"/>
<path d="M125.833 36.8121H128.557C128.629 36.8137 128.7 36.8003 128.766 36.773C128.832 36.7457 128.891 36.7049 128.941 36.6532C128.99 36.6016 129.028 36.5402 129.052 36.4731C129.077 36.4059 129.087 36.3344 129.082 36.2631L128.804 29.1641C128.804 27.4898 127.867 27.1261 127.051 27.1055C125.925 27.1055 125.38 28.0525 125.335 28.9891C125.335 29.1573 125.298 31.4939 125.243 35.9234V36.2665C125.245 36.3412 125.263 36.4146 125.294 36.4825C125.325 36.5504 125.369 36.6115 125.424 36.6622C125.479 36.7129 125.543 36.7522 125.614 36.778C125.684 36.8037 125.758 36.8153 125.833 36.8121Z" fill="#00A651"/>
<path d="M130.41 36.8052H133.275C133.345 36.8076 133.415 36.7954 133.48 36.7694C133.545 36.7434 133.604 36.7042 133.653 36.6542C133.703 36.5995 133.74 36.5348 133.763 36.4644C133.787 36.394 133.794 36.3196 133.787 36.2459L133.54 33.206C133.539 33.193 133.54 33.1799 133.544 33.1675C133.548 33.1551 133.555 33.1437 133.564 33.1339C133.573 33.1224 133.585 33.1131 133.599 33.1068C133.613 33.1004 133.628 33.0971 133.643 33.0971C133.658 33.0971 133.673 33.1004 133.686 33.1068C133.7 33.1131 133.712 33.1224 133.722 33.1339L136.312 36.565C136.358 36.6315 136.418 36.6876 136.487 36.7297C136.572 36.7829 136.671 36.8092 136.772 36.8052H139.174C139.616 36.8052 139.839 36.6096 139.839 36.2151L139.496 26.982V26.9545C139.208 24.8547 138.124 24.7174 137.4 24.7415C136.271 24.7689 135.598 25.6507 135.598 27.0952C135.598 27.1261 135.615 27.9976 135.64 29.2259L135.664 30.3582L132.785 26.6354C132.717 26.5445 132.641 26.4596 132.558 26.3815C132.313 26.1555 131.999 26.0178 131.666 25.9904C131.526 25.9753 131.385 25.9753 131.244 25.9904C130.912 26.0154 130.598 26.1516 130.353 26.3769C130.108 26.6023 129.945 26.9036 129.892 27.2324C129.892 27.3045 129.892 27.3765 129.892 27.4212L129.817 36.2974C129.835 36.4408 129.906 36.5723 130.015 36.6663C130.125 36.7602 130.266 36.8097 130.41 36.8052Z" fill="#00A651"/>
<path d="M118.035 36.1327C118.039 36.2272 118.061 36.32 118.101 36.4057C118.141 36.4914 118.198 36.5684 118.268 36.6322C118.337 36.696 118.419 36.7453 118.508 36.7773C118.597 36.8094 118.692 36.8235 118.786 36.8189H123.933C124.042 36.824 124.15 36.7996 124.246 36.7483C124.342 36.6969 124.422 36.6206 124.478 36.5273C124.535 36.4297 124.564 36.3191 124.564 36.2065C124.564 36.0938 124.535 35.9832 124.478 35.8857C124.478 35.8857 124.451 35.8308 124.427 35.7759C124.224 35.347 123.696 34.2078 122.855 34.2078C122.772 34.2067 122.688 34.2183 122.608 34.2422C122.318 34.3033 122.025 34.348 121.73 34.376C121.647 34.3833 121.563 34.3721 121.485 34.343C121.406 34.3139 121.335 34.2677 121.277 34.2078C121.183 34.1172 121.126 33.995 121.116 33.8647V31.1747C121.132 30.888 121.072 30.6022 120.94 30.3469C120.808 30.0916 120.611 29.8763 120.368 29.7234C120.123 29.6011 119.852 29.5399 119.579 29.545C119.206 29.5353 118.842 29.6567 118.549 29.8881C118.397 30.011 118.276 30.1685 118.197 30.3476C118.117 30.5266 118.082 30.7219 118.093 30.9174L118.035 36.1327Z" fill="#00A651"/>
<path d="M140.625 36.3902C140.625 36.4952 140.666 36.5959 140.74 36.6704C140.814 36.745 140.915 36.7873 141.019 36.7882H141.867C142.526 36.7882 143.366 36.7882 144.114 36.7882H144.883C145.013 36.7903 145.142 36.7637 145.26 36.7104C145.379 36.657 145.484 36.5781 145.569 36.4794C145.653 36.3831 145.716 36.2699 145.752 36.1473C145.789 36.0248 145.799 35.8959 145.782 35.7692L145.518 33.8409C145.512 33.8007 145.514 33.7597 145.526 33.7206C145.537 33.6816 145.556 33.6454 145.583 33.6144C145.61 33.5825 145.644 33.5568 145.681 33.5391C145.719 33.5213 145.761 33.5119 145.802 33.5115H147.377C147.444 33.5122 147.508 33.5353 147.56 33.577C147.611 33.6187 147.647 33.6766 147.662 33.7414L148.142 36.0574C148.187 36.2593 148.299 36.4399 148.46 36.5697C148.621 36.6994 148.821 36.7704 149.028 36.7711H152.215C152.35 36.77 152.482 36.7387 152.603 36.6794C152.724 36.6201 152.83 36.5344 152.913 36.4286C152.996 36.3227 153.054 36.1996 153.083 36.0682C153.112 35.9368 153.111 35.8006 153.08 35.6697L151.059 25.0676C150.901 24.2304 150.201 22.978 148.925 22.978C148.663 22.9721 148.402 23.0196 148.159 23.1175C147.916 23.2154 147.696 23.3618 147.511 23.5476C147.319 23.7473 147.167 23.9833 147.067 24.2419C146.966 24.5005 146.918 24.7764 146.924 25.0538C146.924 25.2872 147.576 28.8555 147.583 28.8932C147.592 28.9355 147.591 28.9792 147.581 29.0211C147.57 29.0629 147.55 29.1019 147.523 29.1349C147.495 29.168 147.46 29.1943 147.42 29.2118C147.381 29.2294 147.338 29.2378 147.295 29.2364H144.952L144.375 26.3988C144.375 26.3474 144.348 26.2616 144.327 26.1621C144.193 25.493 143.84 23.7157 142.165 23.7157C142.06 23.716 141.954 23.7228 141.85 23.7363C140.615 23.8838 140.052 24.8548 140.189 26.615L140.625 36.3902Z" fill="#00A651"/>
<path d="M95.2829 32.4168C95.1422 32.4168 95.1834 32.5712 94.6344 33.1339C94.4066 33.3623 94.145 33.5543 93.859 33.7035C93.6883 33.7926 93.5104 33.8672 93.3272 33.9265C92.9663 34.004 92.5905 33.9742 92.2464 33.8407C91.4778 33.5422 90.9288 32.7153 90.5686 31.6757C90.3627 31.2022 90.2975 30.9517 90.174 31.4492C90.0676 31.885 89.673 34.0877 89.5289 34.8323C89.45 35.2543 89.2922 36.2356 89.1858 36.8566C89.1842 36.8646 89.1842 36.8727 89.1858 36.8807H94.5555H95.0942V36.8532C95.1182 36.4586 95.1525 35.6969 95.1765 35.5906C95.2246 34.8254 95.3275 32.8937 95.3275 32.8937C95.3275 32.8937 95.355 32.4168 95.2829 32.4168Z" fill="#00A651"/>
<path d="M99.997 35.8548V35.594C99.997 35.594 99.997 35.5735 99.997 35.5597L99.6539 26.3678V26.3301C99.4995 25.1875 98.9677 24.9576 98.5423 24.9576C98.0345 24.9576 97.4306 25.3179 96.6208 26.107L94.9705 27.9667C94.8573 28.0937 94.346 28.5397 93.9652 28.5397C93.8999 28.5424 93.8351 28.5264 93.7786 28.4936C93.7221 28.4608 93.6761 28.4125 93.6461 28.3544C93.3407 27.7437 93.0628 27.0609 92.7917 26.3987C92.1227 24.7655 91.4948 23.2249 90.4517 22.6245L90.4174 22.6039C90.2027 22.5021 89.9688 22.4472 89.7312 22.4426C88.6332 22.4426 87.7652 23.6881 86.9177 26.4707C85.9501 29.274 84.087 34.6402 83.9875 34.901C83.8835 35.1091 83.8319 35.3395 83.8373 35.5721C83.8427 35.8048 83.9049 36.0326 84.0184 36.2357C84.4164 36.8395 85.3119 36.8704 85.9021 36.891H86.0908H86.4339H86.6055H88.0911V36.8704L89.2234 31.4012C89.2851 30.9689 89.5665 30.1249 90.2527 30.1249C90.8326 30.1249 91.1894 30.8111 91.4056 31.3086C91.831 32.4923 92.3148 33.1717 92.778 33.2403C93.2412 33.3089 93.8417 32.8972 94.4044 32.1424C95.1729 31.0616 95.4543 30.6841 95.8214 30.6841C95.8855 30.6827 95.9492 30.6948 96.0083 30.7196C96.0674 30.7445 96.1207 30.7815 96.1645 30.8282C96.2346 30.9266 96.2846 31.0379 96.3117 31.1556C96.3388 31.2734 96.3424 31.3953 96.3223 31.5145C96.3223 31.5419 96.2125 34.623 96.2125 36.0298C96.2125 36.0298 96.2125 36.5719 96.1885 36.8636V36.8841L98.9506 36.867H99.177C99.4038 36.8681 99.6225 36.7822 99.7878 36.6268C99.8267 36.5798 99.8612 36.5293 99.8907 36.4758C99.948 36.3803 99.9854 36.274 100 36.1636C100.009 36.0608 100.008 35.9574 99.997 35.8548Z" fill="#00A651"/>
<path d="M76.8235 19.0872H45V50.9106H76.8235V19.0872Z" fill="#00A651"/>
<path d="M60.91 49.1191C68.7096 49.1191 75.0324 42.7963 75.0324 34.9967C75.0324 27.1971 68.7096 20.8743 60.91 20.8743C53.1104 20.8743 46.7876 27.1971 46.7876 34.9967C46.7876 42.7963 53.1104 49.1191 60.91 49.1191Z" fill="#FFF200"/>
<path d="M60.9095 48.2069C68.205 48.2069 74.1192 42.2926 74.1192 34.9971C74.1192 27.7016 68.205 21.7874 60.9095 21.7874C53.6139 21.7874 47.6997 27.7016 47.6997 34.9971C47.6997 42.2926 53.6139 48.2069 60.9095 48.2069Z" fill="#00A651"/>
<path d="M66.8557 45.6784H54.9703C54.5616 45.459 54.1695 45.2101 53.7969 44.9338H68.0188C67.6451 45.2033 67.2568 45.4518 66.8557 45.6784Z" fill="#FFF200"/>
<path d="M68.9867 44.1613H52.833C52.5277 43.9005 52.2909 43.6535 52.061 43.4202H69.7621C69.5631 43.6295 69.2406 43.9417 68.9867 44.1613Z" fill="#FFF200"/>
<path d="M50.8744 41.952L54.405 41.928C54.9814 40.9845 55.6299 39.9071 56.4637 38.7028C57.0778 37.8004 57.1499 37.6151 58.1998 39.5949C58.9203 40.9501 58.9203 40.5899 59.6786 39.6669C60.9378 37.6563 61.4456 37.8827 61.5074 38.4729V41.904H63.7033V35.9922C63.7033 34.7433 62.1559 34.009 60.828 35.9922C59.5105 37.7729 58.9306 36.9289 57.8155 35.5564C57.0607 34.7021 55.9215 34.1634 54.8888 36.0334C53.3036 39.2312 50.8469 41.5849 49.0559 37.7489C48.8454 36.8492 48.7395 35.9281 48.7402 35.004C48.7387 33.3119 49.0896 31.638 49.7705 30.0889C50.4514 28.5398 51.4474 27.1495 52.6951 26.0064C53.9428 24.8634 55.4149 23.9927 57.0176 23.4499C58.6203 22.907 60.3185 22.7038 62.004 22.8533C63.6896 23.0028 65.3255 23.5016 66.8076 24.318C68.2898 25.1344 69.5857 26.2506 70.6128 27.5953C71.6399 28.9401 72.3758 30.484 72.7734 32.1287C73.1711 33.7735 73.2219 35.483 72.9227 37.1485C71.5502 41.1286 66.9937 41.0256 66.6506 35.9785C66.6506 34.5752 64.5233 34.0262 64.4067 36.1912V41.9143H70.9498C70.912 41.9829 70.466 42.6005 70.4179 42.6279H51.3891C51.2175 42.4187 51.0871 42.2574 50.8744 41.952Z" fill="#FFF200"/>
<path d="M59.7132 40.703C59.1402 41.4819 58.3854 41.4785 57.833 40.5589C57.2874 39.7011 57.1742 38.8159 56.6904 39.6085L55.2939 41.9314H60.6465C60.6842 40.4594 60.6979 40.6172 60.7288 39.8487C60.7837 38.8811 60.842 39.3306 59.7132 40.703Z" fill="#00A651"/>
<path d="M60.9098 25.8188C60.3208 25.8188 59.745 25.9935 59.2552 26.3208C58.7655 26.648 58.3838 27.1131 58.1583 27.6573C57.9329 28.2015 57.874 28.8003 57.9889 29.3781C58.1038 29.9558 58.3874 30.4864 58.8039 30.9029C59.2204 31.3195 59.7511 31.6031 60.3288 31.718C60.9065 31.8329 61.5054 31.774 62.0495 31.5485C62.5937 31.3231 63.0589 30.9414 63.3861 30.4516C63.7134 29.9619 63.888 29.3861 63.888 28.797C63.888 28.0072 63.5743 27.2497 63.0157 26.6911C62.4572 26.1326 61.6997 25.8188 60.9098 25.8188Z" fill="#EB2227"/>
<path d="M154.298 40.9194H84.5089C84.4191 40.9129 84.3289 40.925 84.2439 40.9549C84.159 40.9848 84.0811 41.0319 84.0152 41.0932C83.9492 41.1545 83.8966 41.2288 83.8607 41.3114C83.8247 41.3939 83.8062 41.483 83.8062 41.5731C83.8062 41.6631 83.8247 41.7522 83.8607 41.8348C83.8966 41.9173 83.9492 41.9916 84.0152 42.0529C84.0811 42.1143 84.159 42.1613 84.2439 42.1912C84.3289 42.2211 84.4191 42.2332 84.5089 42.2267H154.298C154.387 42.2332 154.478 42.2211 154.562 42.1912C154.647 42.1613 154.725 42.1143 154.791 42.0529C154.857 41.9916 154.91 41.9173 154.946 41.8348C154.982 41.7522 155 41.6631 155 41.5731C155 41.483 154.982 41.3939 154.946 41.3114C154.91 41.2288 154.857 41.1545 154.791 41.0932C154.725 41.0319 154.647 40.9848 154.562 40.9549C154.478 40.925 154.387 40.9129 154.298 40.9194Z" fill="#00A651"/>
<path d="M87.5457 49.4731C87.4527 49.4743 87.3612 49.4966 87.2781 49.5383L86.935 49.6927C86.7913 49.7513 86.6373 49.7805 86.4821 49.7785C86.2842 49.7896 86.0866 49.7515 85.907 49.6677C85.7274 49.5839 85.5714 49.4569 85.4527 49.2981C85.2348 48.9647 85.129 48.5705 85.1508 48.1727C85.1312 47.7736 85.2355 47.3781 85.4493 47.0405C85.5628 46.8752 85.7174 46.7424 85.898 46.6551C86.0785 46.5679 86.2786 46.5292 86.4786 46.543C86.6753 46.5536 86.8689 46.5965 87.0516 46.6699C87.2067 46.7371 87.3709 46.7811 87.5389 46.8003C87.6039 46.8013 87.6683 46.7881 87.7276 46.7614C87.7869 46.7347 87.8396 46.6953 87.882 46.6459C87.9711 46.5406 88.0186 46.4064 88.0158 46.2685C88.0158 45.9631 87.8168 45.7367 87.4291 45.5823C87.1185 45.4672 86.7892 45.4114 86.4581 45.4176C86.1008 45.3957 85.7431 45.454 85.4113 45.5882C85.0794 45.7223 84.7818 45.929 84.5401 46.193C84.0705 46.7337 83.825 47.4332 83.8538 48.1487C83.8219 48.8647 84.0677 49.5654 84.5401 50.1045C84.7819 50.3645 85.0776 50.5687 85.4065 50.7026C85.7354 50.8365 86.0896 50.897 86.4443 50.8799C86.7803 50.8871 87.1145 50.83 87.4291 50.7118C87.8305 50.5505 88.0295 50.3172 88.0295 50.0255C88.0297 49.8891 87.9824 49.7569 87.8957 49.6515C87.8558 49.5961 87.8032 49.551 87.7423 49.5199C87.6815 49.4889 87.614 49.4728 87.5457 49.4731Z" fill="#ED1C24"/>
<path d="M92.9499 45.4345C92.5992 45.4193 92.2494 45.4811 91.9251 45.6157C91.6008 45.7502 91.31 45.9543 91.0731 46.2134C90.6029 46.7537 90.3574 47.4535 90.3869 48.1691C90.3558 48.8819 90.6017 49.579 91.0731 50.1145C91.3135 50.3749 91.6078 50.5795 91.9356 50.714C92.2634 50.8486 92.6166 50.9098 92.9705 50.8934C93.3224 50.9083 93.6732 50.8456 93.9981 50.7098C94.323 50.574 94.6141 50.3685 94.8508 50.1077C95.2926 49.5562 95.5334 48.8706 95.5334 48.1639C95.5334 47.4573 95.2926 46.7717 94.8508 46.2202C94.611 45.9578 94.3164 45.7514 93.9879 45.6156C93.6594 45.4798 93.305 45.418 92.9499 45.4345ZM93.9484 49.3014C93.8452 49.469 93.6994 49.6063 93.5258 49.6992C93.3521 49.792 93.157 49.8371 92.9602 49.8297C92.7582 49.835 92.5583 49.787 92.3807 49.6907C92.2031 49.5943 92.0539 49.453 91.9481 49.2808C91.7366 48.9356 91.6316 48.5358 91.6461 48.1313C91.6311 47.7319 91.7402 47.3375 91.9584 47.0025C92.0669 46.8377 92.2162 46.7038 92.3917 46.6136C92.5672 46.5234 92.7631 46.4801 92.9602 46.4879C93.157 46.4805 93.3521 46.5256 93.5258 46.6184C93.6994 46.7113 93.8452 46.8486 93.9484 47.0162C94.1578 47.3558 94.2617 47.7498 94.2469 48.1485C94.2631 48.5538 94.1593 48.9549 93.9484 49.3014Z" fill="#ED1C24"/>
<path d="M100.584 48.5704C101.397 48.392 101.802 47.9185 101.802 47.1396C101.812 46.9114 101.77 46.6839 101.678 46.4749C101.585 46.2659 101.446 46.0812 101.27 45.9353C100.901 45.6529 100.444 45.5095 99.9799 45.5304H98.7653C98.6676 45.5166 98.568 45.5257 98.4745 45.5571C98.3809 45.5885 98.296 45.6412 98.2264 45.7112C98.1567 45.7811 98.1044 45.8663 98.0735 45.96C98.0426 46.0537 98.0339 46.1533 98.0482 46.251V50.1521C98.0404 50.323 98.0967 50.4907 98.206 50.6222C98.261 50.6859 98.3297 50.7363 98.407 50.7696C98.4842 50.8029 98.568 50.8182 98.6521 50.8144C98.7345 50.8185 98.8168 50.803 98.892 50.769C98.9672 50.7349 99.0331 50.6835 99.0844 50.6188C99.1938 50.4872 99.2501 50.3196 99.2422 50.1487V48.6184L100.711 50.4404L100.79 50.5399C100.845 50.6228 100.919 50.6911 101.006 50.7389C101.094 50.7867 101.191 50.8126 101.291 50.8144C101.443 50.8122 101.589 50.7521 101.699 50.6462C101.756 50.5981 101.801 50.5382 101.833 50.4706C101.864 50.4031 101.881 50.3296 101.881 50.2551C101.876 50.079 101.805 49.9113 101.682 49.785L100.584 48.5704ZM99.9902 47.7813H99.2491V46.5666H99.9696C100.142 46.5654 100.309 46.6291 100.436 46.7451C100.499 46.8027 100.548 46.8727 100.582 46.9508C100.616 47.0288 100.633 47.113 100.632 47.198C100.634 47.2782 100.619 47.3579 100.587 47.4315C100.555 47.5051 100.507 47.5706 100.447 47.6234C100.318 47.7336 100.152 47.7901 99.9834 47.7813H99.9902Z" fill="#ED1C24"/>
<path d="M106.674 45.5444H105.446C105.348 45.5305 105.249 45.5396 105.156 45.5708C105.063 45.6019 104.978 45.6544 104.909 45.7241C104.84 45.7937 104.788 45.8785 104.757 45.9718C104.726 46.0651 104.718 46.1643 104.732 46.2615V50.1524C104.724 50.3233 104.78 50.4909 104.89 50.6224C104.946 50.6823 105.014 50.7299 105.09 50.7625C105.165 50.795 105.247 50.8119 105.329 50.8119C105.411 50.8119 105.492 50.795 105.568 50.7625C105.644 50.7299 105.712 50.6823 105.768 50.6224C105.873 50.4888 105.928 50.3223 105.922 50.1524V49.0373H106.832C107.062 49.0487 107.291 49.0121 107.506 48.93C107.721 48.8479 107.917 48.722 108.081 48.5603C108.24 48.3922 108.363 48.1937 108.443 47.9767C108.523 47.7597 108.559 47.5288 108.547 47.2977C108.562 47.0575 108.523 46.8171 108.434 46.5935C108.345 46.3699 108.208 46.1687 108.033 46.0042C107.653 45.6859 107.168 45.5218 106.674 45.5444ZM107.103 47.8158C106.942 47.9417 106.741 48.0062 106.537 47.9976H105.936V46.5806H106.598C106.695 46.5763 106.792 46.5917 106.883 46.6259C106.974 46.6601 107.057 46.7124 107.127 46.7796C107.194 46.8473 107.247 46.9284 107.281 47.0176C107.315 47.1069 107.331 47.2022 107.326 47.2977C107.332 47.3955 107.315 47.4934 107.276 47.5834C107.237 47.6734 107.178 47.753 107.103 47.8158Z" fill="#ED1C24"/>
<path d="M113.316 45.4551C112.966 45.4385 112.615 45.499 112.29 45.6324C111.966 45.7658 111.674 45.9688 111.436 46.2271C110.967 46.7695 110.722 47.4698 110.75 48.1863C110.721 48.8997 110.967 49.5971 111.436 50.1352C111.677 50.3939 111.972 50.5973 112.3 50.7312C112.627 50.865 112.98 50.9263 113.333 50.9106C113.686 50.926 114.037 50.8636 114.363 50.7278C114.688 50.592 114.98 50.3861 115.217 50.1249C115.684 49.5856 115.93 48.8891 115.903 48.176C115.934 47.4653 115.688 46.7703 115.217 46.2374C114.978 45.9745 114.683 45.7679 114.355 45.6326C114.026 45.4974 113.671 45.4367 113.316 45.4551ZM114.308 49.3185C114.204 49.4868 114.058 49.6244 113.884 49.7172C113.709 49.8101 113.514 49.8549 113.316 49.8469C113.116 49.8538 112.918 49.8076 112.741 49.7129C112.565 49.6183 112.416 49.4787 112.311 49.3083C112.097 48.9654 111.991 48.5662 112.006 48.1623C111.991 47.7628 112.1 47.3684 112.318 47.0334C112.425 46.8684 112.574 46.7342 112.749 46.644C112.924 46.5538 113.12 46.5106 113.316 46.5188C113.514 46.5101 113.71 46.5546 113.884 46.6475C114.059 46.7404 114.205 46.8784 114.308 47.0472C114.516 47.3859 114.62 47.7785 114.606 48.176C114.621 48.5778 114.517 48.975 114.308 49.3185Z" fill="#ED1C24"/>
<path d="M120.945 48.5947C121.759 48.4186 122.165 47.9428 122.163 47.1674C122.174 46.9391 122.132 46.7114 122.039 46.5023C121.947 46.2932 121.807 46.1086 121.631 45.9631C121.263 45.6799 120.808 45.5353 120.344 45.5548H119.133C119.035 45.5411 118.935 45.5502 118.842 45.5816C118.748 45.613 118.663 45.6657 118.593 45.7355C118.523 45.8054 118.471 45.8905 118.439 45.9841C118.408 46.0778 118.399 46.1775 118.412 46.2753V50.1696C118.406 50.3409 118.463 50.5086 118.574 50.6396C118.627 50.7039 118.695 50.7547 118.772 50.788C118.849 50.8214 118.933 50.8364 119.016 50.8318C119.098 50.8391 119.181 50.8268 119.257 50.7958C119.334 50.7647 119.402 50.7159 119.455 50.6534C119.564 50.5201 119.62 50.3517 119.613 50.1799V48.6359L121.085 50.4612L121.161 50.5607C121.216 50.6432 121.29 50.711 121.378 50.7582C121.465 50.8055 121.562 50.8307 121.662 50.8318C121.814 50.8302 121.959 50.7714 122.07 50.6671C122.127 50.6181 122.173 50.5577 122.205 50.4897C122.237 50.4216 122.254 50.3476 122.255 50.2725C122.249 50.0963 122.175 49.9292 122.049 49.8059L120.945 48.5947ZM120.351 47.8056H119.61V46.5875H120.327C120.501 46.5832 120.67 46.6473 120.797 46.7659C120.861 46.8225 120.911 46.8924 120.945 46.9707C120.979 47.0489 120.995 47.1336 120.993 47.2188C120.996 47.2986 120.981 47.378 120.948 47.4511C120.916 47.5242 120.868 47.5891 120.807 47.6409C120.681 47.7503 120.518 47.8068 120.351 47.7987V47.8056Z" fill="#ED1C24"/>
<path d="M129.638 50.0254L128.232 46.1654C128.176 45.9738 128.06 45.8053 127.901 45.6855C127.742 45.5656 127.548 45.5007 127.348 45.5007C127.149 45.5007 126.955 45.5656 126.795 45.6855C126.636 45.8053 126.52 45.9738 126.465 46.1654L125.092 49.9053L125.044 50.0254C125.009 50.1186 124.99 50.2173 124.989 50.317C124.988 50.3939 125.003 50.4702 125.034 50.5406C125.065 50.6111 125.11 50.6741 125.168 50.7253C125.282 50.8329 125.433 50.892 125.59 50.89C125.888 50.89 126.094 50.6842 126.207 50.2621L126.331 49.8092H128.335L128.458 50.2621L128.499 50.3891C128.599 50.7322 128.791 50.89 129.072 50.89C129.231 50.8938 129.386 50.8346 129.501 50.7253C129.557 50.6718 129.602 50.6073 129.632 50.5359C129.662 50.4645 129.677 50.3877 129.676 50.3102C129.679 50.2139 129.666 50.1177 129.638 50.0254ZM126.725 48.7422L127.347 46.7624L127.978 48.7422H126.725Z" fill="#ED1C24"/>
<path d="M135.32 45.5686H132.729C132.575 45.5646 132.425 45.6143 132.304 45.7093C132.247 45.7563 132.202 45.8157 132.173 45.883C132.143 45.9503 132.129 46.0235 132.132 46.097C132.129 46.1706 132.143 46.244 132.172 46.3117C132.201 46.3794 132.245 46.4397 132.3 46.4881C132.419 46.5912 132.573 46.6441 132.729 46.6357H133.44V50.1766C133.433 50.3463 133.489 50.5125 133.597 50.6432C133.651 50.7074 133.719 50.7582 133.796 50.7916C133.873 50.8249 133.956 50.8399 134.04 50.8353C134.123 50.8399 134.205 50.8249 134.281 50.7915C134.357 50.7581 134.423 50.7073 134.476 50.6432C134.583 50.512 134.638 50.3458 134.63 50.1766V46.6357H135.316C135.472 46.6439 135.625 46.5909 135.742 46.4881C135.797 46.4397 135.841 46.3794 135.871 46.3117C135.9 46.244 135.913 46.1706 135.91 46.097C135.913 46.0235 135.899 45.9503 135.87 45.883C135.84 45.8157 135.795 45.7563 135.738 45.7093C135.619 45.6156 135.471 45.5659 135.32 45.5686Z" fill="#ED1C24"/>
<path d="M139.671 45.5411C139.589 45.5375 139.507 45.5523 139.431 45.5843C139.355 45.6163 139.287 45.6649 139.232 45.7264C139.121 45.8583 139.063 46.0274 139.071 46.1999V50.2177C139.065 50.3879 139.122 50.5542 139.232 50.6843C139.286 50.7481 139.353 50.7986 139.429 50.832C139.505 50.8653 139.588 50.8805 139.671 50.8765C139.755 50.8816 139.838 50.8669 139.914 50.8335C139.991 50.8001 140.058 50.7489 140.111 50.6843C140.218 50.5532 140.273 50.387 140.265 50.2177V46.193C140.272 46.0229 140.217 45.8559 140.111 45.723C140.057 45.6607 139.989 45.6118 139.912 45.5803C139.836 45.5487 139.754 45.5353 139.671 45.5411Z" fill="#ED1C24"/>
<path d="M145.318 45.4212C144.968 45.4046 144.617 45.4651 144.293 45.5985C143.968 45.7319 143.676 45.9349 143.438 46.1932C142.969 46.7358 142.724 47.436 142.752 48.1523C142.723 48.8648 142.968 49.5614 143.438 50.0978C143.679 50.3576 143.973 50.5618 144.301 50.6963C144.629 50.8308 144.982 50.8923 145.335 50.8766C145.688 50.892 146.039 50.8296 146.365 50.6938C146.69 50.558 146.982 50.3522 147.219 50.0909C147.686 49.5515 147.931 48.8551 147.905 48.1421C147.934 47.4317 147.688 46.7376 147.219 46.2035C146.98 45.9405 146.685 45.734 146.357 45.5987C146.028 45.4634 145.673 45.4028 145.318 45.4212ZM146.317 49.2812C146.213 49.4494 146.067 49.587 145.893 49.6799C145.718 49.7727 145.523 49.8175 145.325 49.8096C145.126 49.817 144.927 49.7722 144.751 49.6795C144.574 49.5869 144.424 49.4495 144.316 49.2812C144.104 48.9378 143.999 48.5387 144.015 48.1352C144.001 47.7343 144.111 47.3389 144.33 47.0029C144.438 46.8389 144.586 46.7054 144.76 46.6153C144.935 46.5251 145.129 46.4814 145.325 46.4883C145.523 46.4807 145.719 46.526 145.893 46.6195C146.068 46.7129 146.214 46.8512 146.317 47.0201C146.526 47.3585 146.63 47.7514 146.615 48.1489C146.627 48.5473 146.524 48.9406 146.317 49.2812Z" fill="#ED1C24"/>
<path d="M154.374 45.5446C154.29 45.541 154.207 45.5565 154.131 45.5898C154.054 45.623 153.986 45.6733 153.931 45.7367C153.823 45.8637 153.764 46.026 153.767 46.193V48.6806L151.461 45.7985C151.405 45.7175 151.331 45.651 151.245 45.6044C151.158 45.5579 151.062 45.5327 150.963 45.5308C150.885 45.5273 150.806 45.5404 150.733 45.5694C150.659 45.5984 150.593 45.6425 150.538 45.699C150.483 45.7575 150.44 45.8266 150.413 45.9021C150.385 45.9776 150.373 46.0579 150.377 46.1381V50.2246C150.37 50.3959 150.427 50.5636 150.538 50.6946C150.594 50.7545 150.663 50.8021 150.738 50.8347C150.814 50.8673 150.895 50.8841 150.977 50.8841C151.059 50.8841 151.141 50.8673 151.216 50.8347C151.292 50.8021 151.36 50.7545 151.416 50.6946C151.521 50.561 151.576 50.3945 151.571 50.2246V47.6684L153.777 50.4613L153.931 50.6603C153.984 50.7324 154.053 50.7905 154.133 50.8294C154.214 50.8683 154.302 50.8868 154.391 50.8834C154.769 50.8834 154.961 50.6535 154.961 50.1971V46.193C154.967 46.023 154.912 45.8564 154.806 45.723C154.752 45.6627 154.685 45.6153 154.611 45.5844C154.536 45.5535 154.455 45.5399 154.374 45.5446Z" fill="#ED1C24"/>
</svg>
