<svg width="200" height="70" viewBox="0 0 200 70" fill="none" xmlns="http://www.w3.org/2000/svg">
<rect width="200" height="70" fill="#D1E4FB" fill-opacity="0.2"/>
<path d="M75.0574 30.0524V38.6818L67.4 30.0524H63.4912V41.5364H66.3748V32.9234L74.0162 41.5364H77.941V30.0524H75.0574ZM92.205 32.5296V30.0524H80.3507V41.5364H83.2342V37.9435H91.2444V35.4498H83.2342V32.5296H92.205ZM107.902 30.0524H94.1246V32.5296H99.5709V41.5364H102.455V32.5296H107.902V30.0524Z" fill="#D8D8D8"/>
<path d="M123.853 30.0523H110.077V32.5296H115.523V41.5363H118.407V32.5296H123.853V30.0523ZM130.48 39.42C128.654 39.42 127.212 38.9114 126.908 37.3692H137.097C137.097 32.9725 134.229 31.7093 130.641 31.7093C126.812 31.7093 124.105 33.153 124.105 36.713C124.105 40.2567 126.892 41.7004 130.48 41.7004C133.972 41.7004 136.311 40.5356 136.936 38.0747H134.213C133.524 39.059 132.37 39.42 130.48 39.42ZM130.624 33.8421C132.355 33.8421 133.7 34.2194 134.164 35.581H127.004C127.436 34.2194 128.75 33.8421 130.624 33.8421ZM139.008 36.713C139.008 40.2567 141.635 41.7004 145.544 41.7004C149.069 41.7004 151.552 40.5192 152 37.681H149.197C148.828 38.9278 147.531 39.3544 145.544 39.3544C143.19 39.3544 141.748 38.7145 141.748 36.713C141.748 34.6951 143.19 34.0553 145.544 34.0553C147.531 34.0553 148.828 34.4819 149.197 35.7287H152C151.552 32.8905 149.069 31.7093 145.544 31.7093C141.635 31.7093 139.008 33.153 139.008 36.713ZM162.4 31.7093C160.11 31.7093 158.252 32.4804 156.906 33.5631V28.4117H154.166V41.5363H156.906V36.1224C157.755 35.1052 159.741 34.1373 161.583 34.1373C163.842 34.1373 164.515 35.2037 164.515 37.2544V41.5363H167.27L167.302 36.1881C167.27 32.628 164.915 31.7093 162.4 31.7093Z" fill="url(#paint0_linear)"/>
<g filter="url(#filter0_d)">
<path d="M42.1989 22.5595C43.4608 21.8135 45.0153 21.8135 46.2771 22.5595L53.7388 26.9713C55.0005 27.7173 55.7778 29.0961 55.7778 30.5883V39.4118C55.7778 40.9039 55.0005 42.2826 53.7388 43.0287L46.2771 47.4404C45.0153 48.1865 43.4608 48.1865 42.1989 47.4404L34.7374 43.0287C33.4755 42.2826 32.6982 40.9039 32.6982 39.4118V30.5883C32.6982 29.0961 33.4755 27.7173 34.7374 26.9713L42.1989 22.5595Z" fill="url(#paint1_linear)"/>
</g>
<g filter="url(#filter1_d)">
<path d="M48.5636 33.569C48.542 33.5264 48.5094 33.4906 48.4693 33.4656C48.4292 33.4406 48.3831 33.4274 48.3362 33.4274H44.5581L45.5128 29.0243C45.5258 28.9652 45.5185 28.9033 45.492 28.8492C45.4655 28.795 45.4215 28.7519 45.3675 28.7272C45.3135 28.7025 45.2528 28.6976 45.1957 28.7135C45.1387 28.7295 45.0887 28.7651 45.0544 28.8144L39.9322 36.1583C39.9044 36.1975 39.8878 36.2439 39.8841 36.2922C39.8804 36.3405 39.8899 36.389 39.9115 36.4321C39.9331 36.4753 39.966 36.5115 40.0065 36.5366C40.0469 36.5618 40.0934 36.575 40.1407 36.5748H43.9189L42.964 40.9758C42.9511 41.0349 42.9584 41.0968 42.9849 41.151C43.0115 41.2051 43.0554 41.2482 43.1094 41.2729C43.1634 41.2976 43.2241 41.3025 43.2812 41.2865C43.3382 41.2706 43.3882 41.235 43.4225 41.1856L48.5447 33.8418C48.572 33.8025 48.5883 33.7563 48.5916 33.7082C48.595 33.66 48.5852 33.6119 48.5636 33.569Z" fill="white"/>
</g>
<defs>
<filter id="filter0_d" x="28.0411" y="18.5848" width="32.3939" height="35.3143" filterUnits="userSpaceOnUse" color-interpolation-filters="sRGB">
<feFlood flood-opacity="0" result="BackgroundImageFix"/>
<feColorMatrix in="SourceAlpha" type="matrix" values="0 0 0 0 0 0 0 0 0 0 0 0 0 0 0 0 0 0 127 0"/>
<feOffset dy="1.24191"/>
<feGaussianBlur stdDeviation="2.32858"/>
<feColorMatrix type="matrix" values="0 0 0 0 0.333333 0 0 0 0 0.176471 0 0 0 0 1 0 0 0 0.3 0"/>
<feBlend mode="normal" in2="BackgroundImageFix" result="effect1_dropShadow"/>
<feBlend mode="normal" in="SourceGraphic" in2="effect1_dropShadow" result="shape"/>
</filter>
<filter id="filter1_d" x="38.6414" y="28.7043" width="11.1928" height="15.0752" filterUnits="userSpaceOnUse" color-interpolation-filters="sRGB">
<feFlood flood-opacity="0" result="BackgroundImageFix"/>
<feColorMatrix in="SourceAlpha" type="matrix" values="0 0 0 0 0 0 0 0 0 0 0 0 0 0 0 0 0 0 127 0"/>
<feOffset dy="1.24191"/>
<feGaussianBlur stdDeviation="0.620954"/>
<feColorMatrix type="matrix" values="0 0 0 0 0.0709459 0 0 0 0 0 0 0 0 0 0.451476 0 0 0 0.1 0"/>
<feBlend mode="normal" in2="BackgroundImageFix" result="effect1_dropShadow"/>
<feBlend mode="normal" in="SourceGraphic" in2="effect1_dropShadow" result="shape"/>
</filter>
<linearGradient id="paint0_linear" x1="62.8023" y1="37.8142" x2="168.979" y2="38.5576" gradientUnits="userSpaceOnUse">
<stop stop-color="#962DFF"/>
<stop offset="1" stop-color="#3E2DFF"/>
</linearGradient>
<linearGradient id="paint1_linear" x1="30.913" y1="36.5239" x2="57.5634" y2="36.5539" gradientUnits="userSpaceOnUse">
<stop stop-color="#962DFF"/>
<stop offset="1" stop-color="#3E2DFF"/>
</linearGradient>
</defs>
</svg>
