<svg width="124" height="28" viewBox="0 0 124 28" fill="none" xmlns="http://www.w3.org/2000/svg">
<path d="M48.26 16.5498L43.2975 27.6811H42.4835L37.5259 16.5498H38.4134L42.915 26.6317L47.4165 16.5498H48.26Z" fill="white"/>
<path d="M57.7191 26.97V27.7006H50.04V16.5693H57.4838V17.3H50.8491V21.6887H56.7825V22.4047H50.8491V26.97H57.7191Z" fill="white"/>
<path d="M69.743 16.5498V27.6811H69.0762L61.5 18.0111V27.6811H60.6909V16.5498H61.3725L68.9437 26.2149V16.5498H69.743Z" fill="white"/>
<path d="M75.7548 17.2805H71.7485V16.5498H80.5751V17.2805H76.5639V27.6811H75.7548V17.2805Z" fill="white"/>
<path d="M83.4288 26.5336C82.6475 25.7196 82.2568 24.5281 82.2568 22.9589V16.5498H83.0758V22.9246C83.0758 24.2943 83.388 25.3175 84.0123 25.9942C84.3676 26.3476 84.7941 26.6214 85.2633 26.7972C85.7325 26.9731 86.2338 27.0471 86.7339 27.0142C87.2337 27.0483 87.735 26.9744 88.2038 26.7976C88.6725 26.6207 89.0977 26.3451 89.4505 25.9893C90.0782 25.3126 90.392 24.2894 90.392 22.9197V16.5449H91.2011V22.954C91.2011 24.5231 90.8088 25.7147 90.0242 26.5287C89.1114 27.3196 87.9441 27.7549 86.7363 27.7549C85.5286 27.7549 84.3613 27.3196 83.4484 26.5287L83.4288 26.5336Z" fill="white"/>
<path d="M102.691 27.6812L100.033 23.9593C99.6753 24.01 99.3149 24.0362 98.9539 24.0378H95.7764V27.6812H94.9673V16.5499H98.9589C100.137 16.4775 101.303 16.825 102.249 17.5307C102.646 17.8686 102.96 18.2933 103.167 18.7721C103.374 19.2508 103.467 19.7707 103.441 20.2914C103.482 21.0852 103.243 21.8683 102.767 22.5044C102.29 23.1405 101.605 23.5894 100.832 23.773L103.617 27.6714L102.691 27.6812ZM98.9539 23.3219C99.9237 23.3891 100.886 23.1112 101.671 22.5373C101.968 22.2459 102.205 21.8981 102.366 21.5141C102.528 21.1301 102.611 20.7178 102.611 20.3012C102.611 19.8847 102.528 19.4723 102.366 19.0883C102.205 18.7044 101.968 18.3565 101.671 18.0652C100.886 17.4913 99.9237 17.2134 98.9539 17.2806H95.7764V23.3219H98.9539Z" fill="white"/>
<path d="M114.096 26.97V27.7006H106.417V16.5693H113.856V17.3H107.226V21.6887H113.16V22.4047H107.226V26.97H114.096Z" fill="white"/>
<path d="M117.651 27.3378C117 27.1131 116.409 26.7405 115.925 26.2492L116.293 25.6461C116.739 26.0943 117.278 26.4391 117.872 26.6562C118.539 26.916 119.25 27.0474 119.966 27.0436C120.809 27.1021 121.649 26.8909 122.364 26.4404C122.619 26.2659 122.827 26.0308 122.969 25.7561C123.111 25.4813 123.183 25.1756 123.178 24.8664C123.189 24.649 123.157 24.4314 123.083 24.2267C123.009 24.022 122.894 23.8343 122.746 23.6748C122.448 23.369 122.084 23.1344 121.682 22.9883C121.121 22.7895 120.548 22.6257 119.966 22.4979C119.301 22.34 118.646 22.1435 118.004 21.9095C117.52 21.7233 117.088 21.4201 116.749 21.0268C116.388 20.5745 116.205 20.006 116.234 19.4282C116.233 18.9072 116.381 18.3969 116.661 17.9571C116.985 17.4797 117.442 17.1079 117.975 16.8881C118.672 16.5982 119.423 16.4611 120.177 16.486C120.792 16.4873 121.403 16.5798 121.991 16.7606C122.541 16.917 123.062 17.1639 123.531 17.4913L123.232 18.1435C122.782 17.8322 122.286 17.5954 121.761 17.4423C121.247 17.2873 120.713 17.2064 120.177 17.202C119.35 17.1458 118.527 17.3647 117.838 17.8247C117.588 18.0098 117.385 18.2518 117.247 18.5306C117.109 18.8094 117.039 19.1171 117.043 19.4282C117.032 19.6463 117.064 19.8645 117.139 20.0699C117.213 20.2754 117.327 20.464 117.475 20.6247C117.773 20.93 118.137 21.1632 118.539 21.3063C119.106 21.5029 119.684 21.6666 120.27 21.7967C120.936 21.9504 121.591 22.1469 122.231 22.3851C122.712 22.5696 123.141 22.8673 123.482 23.2531C123.843 23.6917 124.027 24.2499 123.997 24.8173C123.998 25.3398 123.846 25.8513 123.56 26.2884C123.226 26.7666 122.759 27.1365 122.217 27.3525C121.51 27.6364 120.752 27.7716 119.99 27.7497C119.192 27.7573 118.399 27.6177 117.651 27.3378V27.3378Z" fill="white"/>
<path d="M41.1792 7.55162L39.61 9.18945V12.1316H36.9229V0.456055H39.61V5.91381L44.7883 0.456055H47.7942L42.9494 5.66373L48.0786 12.1463H44.9207L41.1792 7.55162Z" fill="white"/>
<path d="M58.126 9.64058H52.7026L51.6925 12.1463H48.917L54.1296 0.456055H56.8021L61.9901 12.1463H59.1509L58.126 9.64058ZM57.2777 7.58595L55.4241 3.10892L53.5705 7.58595H57.2777Z" fill="white"/>
<path d="M72.3368 12.1463L70.0811 8.89024H67.595V12.1463H64.8882V0.455969H69.9487C70.8746 0.433689 71.7945 0.610965 72.6458 0.975754C73.3633 1.28427 73.9751 1.79556 74.4062 2.44685C74.8289 3.12187 75.0438 3.90631 75.024 4.70252C75.0473 5.49746 74.8284 6.2807 74.3963 6.94839C73.9588 7.59258 73.3415 8.09392 72.6212 8.39007L75.2398 12.1512L72.3368 12.1463ZM71.6503 3.1873C71.1137 2.79886 70.4576 2.6114 69.7967 2.6577H67.595V6.73263H69.7967C70.4584 6.78008 71.1155 6.59063 71.6503 6.19814C71.8523 6.00288 72.0129 5.76897 72.1226 5.51034C72.2323 5.25171 72.2888 4.97365 72.2888 4.69272C72.2888 4.41179 72.2323 4.13372 72.1226 3.87509C72.0129 3.61646 71.8523 3.38256 71.6503 3.1873Z" fill="white"/>
<path d="M78.8291 0.456023H84.1398C85.3024 0.431316 86.4546 0.679899 87.5036 1.18176C88.4402 1.63262 89.228 2.34218 89.774 3.22658C90.3044 4.16364 90.5831 5.22201 90.5831 6.29871C90.5831 7.37542 90.3044 8.43379 89.774 9.37085C89.2301 10.257 88.4417 10.9671 87.5036 11.4157C86.455 11.919 85.3028 12.1693 84.1398 12.1463H78.8291V0.456023ZM84.0073 9.92496C85.0314 9.97588 86.0347 9.62385 86.8024 8.94423C87.4733 8.22665 87.8464 7.28102 87.8464 6.29871C87.8464 5.31641 87.4733 4.37078 86.8024 3.6532C86.0347 2.97358 85.0314 2.62155 84.0073 2.67247H81.5555V9.92005L84.0073 9.92496Z" fill="white"/>
<path d="M94.2905 0.456055H96.9973V12.1463H94.2905V0.456055Z" fill="white"/>
<path d="M109.134 9.64058H103.71L102.69 12.1463H99.9199L105.132 0.456055H107.8L112.988 12.1463H110.149L109.134 9.64058ZM108.286 7.58595L106.432 3.10892L104.578 7.58595H108.286Z" fill="white"/>
<path d="M14.0718 2.48124L15.6262 7.07105L17.3229 0L14.0718 2.48124Z" fill="#C7CFEA"/>
<path d="M10.2373 0L14.0719 2.48615L17.3231 0H10.2373Z" fill="#E0E5F4"/>
<path d="M14.2044 6.81606L15.6264 7.07105L14.072 2.48124L10.2373 0L14.2044 6.81606Z" fill="white"/>
<path d="M20.4956 0L24.8647 4.02589L18.6567 7.62517L20.4956 0Z" fill="#F1F3FA"/>
<path d="M26.684 0L24.8647 4.02589L20.5005 0H26.684Z" fill="white"/>
<path d="M18.6567 7.62027L27.5814 9.1453L24.8647 4.021L18.6567 7.62027Z" fill="#E0E5F4"/>
<path d="M20.9563 13.441L21.7458 19.8157L15.9497 9.80737L20.9563 13.441Z" fill="white"/>
<path d="M26.1934 11.6511L20.9465 13.441L15.9497 9.80737L26.1934 11.6511Z" fill="#E0E5F4"/>
<path d="M21.746 19.7962L20.9565 13.4214L26.2034 11.6316L21.746 19.7962Z" fill="#C7CFEA"/>
<path d="M7.81009 1.24048L5.84863 12.9749L12.9295 9.96406L7.81009 1.24048Z" fill="#E0E5F4"/>
<path d="M10.9631 21.7525L12.9295 9.96411L5.84863 12.9749L10.9631 21.7525Z" fill="white"/>
<path d="M19.4266 21.0267L10.9629 21.7525L12.9292 9.96411L19.4266 21.0267Z" fill="#E0E5F4"/>
<path d="M5.8484 12.9751L7.80986 1.24064L7.37344 0.495285C7.28231 0.344361 7.15345 0.219773 6.99954 0.13379C6.84563 0.0478062 6.67198 0.00339232 6.49569 0.00492098H2.32759C1.91835 0.00434645 1.5162 0.111832 1.16182 0.316513C0.807442 0.521194 0.513391 0.81581 0.309386 1.17058C0.105381 1.52535 -0.00134152 1.9277 1.27297e-05 2.33694C0.00136698 2.74618 0.110744 3.14781 0.317093 3.50122L5.8484 12.9849V12.9751Z" fill="#C7CFEA"/>
<path d="M19.4266 21.0269L10.9629 21.7526L13.7825 26.5876C13.9878 26.9407 14.2823 27.2338 14.6364 27.4376C14.9904 27.6413 15.3918 27.7485 15.8003 27.7485C16.2088 27.7485 16.6102 27.6413 16.9643 27.4376C17.3184 27.2338 17.6128 26.9407 17.8182 26.5876L19.9464 22.9295C20.0368 22.7738 20.0844 22.597 20.0844 22.417C20.0844 22.237 20.0368 22.0602 19.9464 21.9046L19.4266 21.0269Z" fill="#C7CFEA"/>
<path d="M28.4689 7.2403e-05H26.684L24.8647 4.02597L30.5039 1.08378C30.2818 0.747965 29.9793 0.47295 29.6239 0.283699C29.2686 0.0944483 28.8715 -0.00304336 28.4689 7.2403e-05V7.2403e-05Z" fill="#E0E5F4"/>
<path d="M29.7782 5.16866L30.6216 3.64362C30.8371 3.24935 30.9401 2.80346 30.9193 2.35464C30.8985 1.90582 30.7549 1.47134 30.5039 1.09863L29.6311 1.55467L24.8647 4.00649L27.5814 9.1259L29.7782 5.16866Z" fill="#C7CFEA"/>
</svg>
