<svg width="124" height="28" viewBox="0 0 124 28" fill="none" xmlns="http://www.w3.org/2000/svg">
<path d="M48.26 16.5449L43.2975 27.6762H42.4884L37.5259 16.5449H38.4183L42.9199 26.6268L47.4165 16.5449H48.26Z" fill="#282863"/>
<path d="M57.7191 26.9455V27.6762H50.04V16.5449H57.4838V17.2756H50.8491V21.6888H56.7825V22.4048H50.8491V26.9701L57.7191 26.9455Z" fill="#282863"/>
<path d="M69.7431 16.5449V27.6762H69.0762L61.5 18.0062V27.6762H60.686V16.5449H61.3725L68.9438 26.2149V16.5449H69.7431Z" fill="#282863"/>
<path d="M75.7548 17.2756H71.7485V16.5449H80.5751V17.2756H76.5688V27.6762H75.7597L75.7548 17.2756Z" fill="#282863"/>
<path d="M83.4288 26.5287C82.6475 25.7147 82.2568 24.5232 82.2568 22.954V16.5449H83.0758V22.9197C83.0758 24.2878 83.3847 25.3126 84.0123 25.9893C84.7624 26.6523 85.7285 27.019 86.7296 27.0208C87.7306 27.0227 88.698 26.6594 89.4505 25.9991C90.0749 25.3224 90.3871 24.2992 90.3871 22.9295V16.5547H91.2011V22.9638C91.2011 24.533 90.8088 25.7245 90.0242 26.5386C89.1114 27.3294 87.9441 27.7647 86.7363 27.7647C85.5286 27.7647 84.3613 27.3294 83.4484 26.5386L83.4288 26.5287Z" fill="#282863"/>
<path d="M102.691 27.676L100.038 23.9541C99.6786 24.0048 99.3166 24.0311 98.954 24.0326H95.7764V27.676H94.9624V16.5447H98.954C100.134 16.4716 101.301 16.8191 102.249 17.5255C102.644 17.865 102.957 18.2901 103.163 18.7684C103.37 19.2468 103.465 19.7658 103.441 20.2862C103.484 21.0804 103.246 21.8645 102.769 22.501C102.292 23.1375 101.606 23.586 100.832 23.7678L103.617 27.6662L102.691 27.676ZM98.954 23.3167C99.9252 23.3834 100.889 23.1056 101.675 22.5321C101.972 22.2401 102.208 21.892 102.368 21.5081C102.529 21.1242 102.612 20.7122 102.612 20.296C102.612 19.8799 102.529 19.4678 102.368 19.0839C102.208 18.7001 101.972 18.352 101.675 18.06C100.889 17.4865 99.9252 17.2087 98.954 17.2754H95.7764V23.3167H98.954Z" fill="#282863"/>
<path d="M114.096 26.9455V27.6762H106.412V16.5449H113.856V17.2756H107.226V21.6888H113.155V22.4048H107.226V26.9701L114.096 26.9455Z" fill="#282863"/>
<path d="M117.651 27.3329C117.001 27.1092 116.411 26.7364 115.93 26.2443L116.293 25.6412C116.741 26.0894 117.282 26.4341 117.877 26.6513C118.543 26.911 119.251 27.0425 119.966 27.0387C120.811 27.0976 121.652 26.8864 122.369 26.4356C122.623 26.2604 122.831 26.0251 122.973 25.7506C123.115 25.476 123.187 25.1706 123.183 24.8615C123.193 24.6442 123.161 24.4269 123.086 24.2224C123.012 24.0178 122.898 23.83 122.751 23.6699C122.452 23.3641 122.089 23.1295 121.687 22.9834C121.124 22.7854 120.549 22.6216 119.966 22.493C119.301 22.3376 118.645 22.1411 118.004 21.9046C117.519 21.7197 117.087 21.4163 116.749 21.0219C116.384 20.5719 116.198 20.0022 116.229 19.4233C116.229 18.9018 116.379 18.3911 116.661 17.9522C116.98 17.4717 117.436 17.0977 117.97 16.8783C118.67 16.5929 119.421 16.4575 120.177 16.4812C120.79 16.4804 121.4 16.5713 121.986 16.7509C122.538 16.9082 123.059 17.155 123.531 17.4815L123.227 18.1337C122.776 17.8243 122.28 17.5877 121.756 17.4325C121.244 17.2771 120.712 17.1962 120.177 17.1922C119.35 17.136 118.527 17.3549 117.838 17.8149C117.588 18.0001 117.385 18.242 117.247 18.5208C117.109 18.7996 117.039 19.1073 117.043 19.4184C117.022 19.858 117.175 20.2883 117.47 20.6149C117.771 20.9193 118.136 21.1522 118.539 21.2965C119.106 21.4931 119.684 21.6569 120.27 21.7869C120.935 21.942 121.59 22.1385 122.231 22.3753C122.711 22.5623 123.139 22.8597 123.482 23.2433C123.843 23.6819 124.027 24.2401 123.997 24.8075C123.998 25.33 123.846 25.8415 123.56 26.2786C123.226 26.757 122.759 27.1269 122.217 27.3427C121.51 27.6262 120.752 27.7614 119.99 27.7399C119.192 27.7491 118.399 27.6111 117.651 27.3329V27.3329Z" fill="#282863"/>
<path d="M41.1792 7.54659L39.61 9.1844V12.1266H36.9229V0.451015H39.61V5.89406L44.7834 0.431396H47.7697L42.9298 5.64397L48.0541 12.1217H44.9011L41.1792 7.54659Z" fill="#282863"/>
<path d="M58.1261 9.6357H52.6978L51.6631 12.1415H48.8926L54.1002 0.451172H56.7727L61.9902 12.1415H59.151L58.1261 9.6357ZM57.2729 7.58107L55.4193 3.10895L53.5657 7.58107H57.2729Z" fill="#282863"/>
<path d="M72.3368 12.1414L70.0811 8.88536H67.595V12.1414H64.8882V0.451087H69.9487C70.8746 0.428806 71.7945 0.606082 72.6458 0.970872C73.3633 1.27939 73.9751 1.79067 74.4062 2.44196C74.8289 3.11698 75.0438 3.90143 75.024 4.69764C75.0541 5.48659 74.8387 6.26544 74.4074 6.92679C73.9762 7.58814 73.3504 8.09941 72.6163 8.39009L75.2398 12.1463L72.3368 12.1414ZM71.6503 3.18242C71.113 2.79572 70.457 2.61001 69.7967 2.65773H67.595V6.72776H69.7967C70.4576 6.77406 71.1137 6.5866 71.6503 6.19816C71.8506 6.00143 72.0097 5.76677 72.1183 5.50788C72.2269 5.24898 72.2829 4.97105 72.2829 4.6903C72.2829 4.40954 72.2269 4.13159 72.1183 3.8727C72.0097 3.6138 71.8506 3.37914 71.6503 3.18242V3.18242Z" fill="#282863"/>
<path d="M78.8291 0.451252H84.1398C85.3021 0.429622 86.4536 0.678058 87.5036 1.177C88.4402 1.62785 89.228 2.33741 89.774 3.22181C90.3044 4.15886 90.5831 5.21724 90.5831 6.29395C90.5831 7.37065 90.3044 8.42902 89.774 9.36607C89.2298 10.2532 88.4416 10.9648 87.5036 11.4158C86.4536 11.9147 85.3021 12.1632 84.1398 12.1415H78.8291V0.451252ZM84.0073 9.92019C85.0314 9.97111 86.0347 9.61908 86.8024 8.93946C87.4736 8.22107 87.8469 7.27462 87.8469 6.29149C87.8469 5.30836 87.4736 4.36192 86.8024 3.64353C86.0347 2.96391 85.0314 2.61188 84.0073 2.6628H81.5555V9.91038L84.0073 9.92019Z" fill="#282863"/>
<path d="M94.2905 0.451172H96.9973V12.1415H94.2905V0.451172Z" fill="#282863"/>
<path d="M109.134 9.6357H103.706L102.69 12.1415H99.9199L105.128 0.451172H107.8L112.988 12.1415H110.149L109.134 9.6357ZM108.281 7.58107L106.427 3.10895L104.573 7.58107H108.281Z" fill="#282863"/>
<path d="M14.0718 2.46159L15.6262 7.0563L17.3229 0.00976562L14.0718 2.46159Z" fill="#2F3973"/>
<path d="M10.2324 0.00976562L14.072 2.49592L17.3231 0.00976562H10.2324Z" fill="#131646"/>
<path d="M14.1995 6.81112L15.6215 7.06612L14.072 2.46159L10.2324 0.00976562L14.1995 6.81112Z" fill="#405096"/>
<path d="M20.4956 0.00976562L24.8647 4.03565L18.6567 7.63983L20.4956 0.00976562Z" fill="#405096"/>
<path d="M26.684 0.00976562L24.8647 4.03565L20.4956 0.00976562H26.684Z" fill="#2F3973"/>
<path d="M18.6567 7.61539L27.5765 9.14041L24.8647 4.01611L18.6567 7.61539Z" fill="#131646"/>
<path d="M20.9514 13.436L21.7458 19.8108L15.9497 9.81714L20.9514 13.436Z" fill="#2F3973"/>
<path d="M26.1934 11.6462L20.9416 13.436L15.9497 9.81714L26.1934 11.6462Z" fill="#131646"/>
<path d="M21.746 19.791L20.9565 13.4163L26.2034 11.6265L21.746 19.791Z" fill="#1F2658"/>
<path d="M7.80472 1.23584L5.84326 12.9703L12.929 9.95943L7.80472 1.23584Z" fill="#2F3973"/>
<path d="M10.9627 21.7476L12.929 9.95923L5.84326 12.9701L10.9627 21.7476Z" fill="#405096"/>
<path d="M19.4266 21.0218L10.9629 21.7476L12.9292 9.95923L19.4266 21.0218Z" fill="#2F3973"/>
<path d="M5.8435 12.9701L7.80496 1.23572L7.36853 0.490372C7.27784 0.340165 7.14975 0.216023 6.99677 0.130081C6.8438 0.0441385 6.67115 -0.000669399 6.49569 7.55823e-06H2.32759C1.91835 -0.000566976 1.5162 0.106908 1.16182 0.311588C0.807442 0.516269 0.513391 0.810901 0.309386 1.16567C0.105381 1.52044 -0.00134152 1.92278 1.27297e-05 2.33202C0.00136698 2.74126 0.110744 3.14288 0.317093 3.49629L5.8435 12.98V12.9701Z" fill="#1F2658"/>
<path d="M19.4266 21.022L10.9629 21.7477L13.7825 26.5827C13.9878 26.9359 14.2823 27.229 14.6364 27.4327C14.9904 27.6364 15.3918 27.7436 15.8003 27.7436C16.2088 27.7436 16.6102 27.6364 16.9643 27.4327C17.3184 27.229 17.6128 26.9359 17.8182 26.5827L19.9415 22.9246C20.0329 22.7693 20.0811 22.5924 20.0811 22.4122C20.0811 22.2319 20.0329 22.055 19.9415 21.8997L19.4266 21.022Z" fill="#131646"/>
<path d="M28.464 0.00977133H26.684L24.8647 4.03566L30.5039 1.09347C30.2791 0.759139 29.9754 0.485363 29.6196 0.296346C29.2638 0.107329 28.8669 0.00890211 28.464 0.00977133Z" fill="#405096"/>
<path d="M29.7734 5.16354L30.607 3.6385C30.8224 3.24423 30.9254 2.79834 30.9046 2.34953C30.8839 1.90071 30.7402 1.46621 30.4893 1.09351L29.6115 1.54956L24.8501 4.00138L27.5618 9.12568L29.7734 5.16354Z" fill="#2F3973"/>
</svg>
